<?xml version="1.0" encoding="UTF-8"?>
<svg xmlns="http://www.w3.org/2000/svg" xmlns:xlink="http://www.w3.org/1999/xlink" width="397.2pt" height="379.86pt" viewBox="0 0 397.2 379.86" version="1.1">
<defs>
<clipPath id="clip1">
  <path d="M 0 0 L 397.199219 0 L 397.199219 243 L 0 243 Z M 0 0 "/>
</clipPath>
<clipPath id="clip2">
  <path d="M 13 337 L 37 337 L 37 379.859375 L 13 379.859375 Z M 13 337 "/>
</clipPath>
</defs>
<g id="surface1">
<g clip-path="url(#clip1)" clip-rule="nonzero">
<path style=" stroke:none;fill-rule:nonzero;fill:rgb(100%,45.092773%,0%);fill-opacity:1;" d="M 397.195313 82.019531 C 395.109375 88.628906 390.382813 92.097656 383.96875 94.347656 C 326.257813 114.613281 268.589844 135.003906 210.960938 155.496094 C 202.378906 158.546875 194.289063 158.328125 185.695313 155.253906 C 137.339844 137.949219 88.882813 120.929688 40.457031 103.828125 C 39.273438 103.410156 38.039063 103.144531 36.445313 102.695313 L 36.445313 242.753906 L 13.132813 242.753906 L 13.132813 238.726563 C 13.132813 191.796875 13.132813 144.867188 13.148438 97.9375 C 13.148438 95.832031 13.246094 94.1875 10.542969 93.171875 C 3.304688 90.449219 -0.140625 85.328125 0.00390625 78.578125 C 0.152344 71.816406 4.101563 66.882813 11.566406 64.242188 C 37.96875 54.914063 64.375 45.601563 90.777344 36.277344 C 123.144531 24.847656 155.523438 13.457031 187.859375 1.949219 C 194.984375 -0.589844 201.914063 -0.675781 209.050781 1.851563 C 267.558594 22.570313 326.070313 43.273438 384.632813 63.824219 C 390.851563 66.003906 395.113281 69.609375 397.195313 75.8125 "/>
</g>
<path style=" stroke:none;fill-rule:nonzero;fill:rgb(100%,45.092773%,0%);fill-opacity:1;" d="M 340.542969 134.40625 L 340.542969 143.480469 C 340.542969 169.59375 340.410156 195.703125 340.613281 221.8125 C 340.683594 230.4375 337.019531 235.714844 329.148438 239.113281 C 281.574219 259.65625 231.914063 268.527344 180.238281 265.722656 C 140.65625 263.574219 102.6875 254.351563 66.402344 238.304688 C 60.222656 235.570313 56.691406 231.046875 56.675781 224.261719 C 56.605469 194.917969 56.644531 165.574219 56.65625 136.230469 C 56.65625 135.851563 56.757813 135.472656 56.890625 134.539063 C 58.390625 134.988281 59.808594 135.34375 61.183594 135.828125 C 100.722656 149.792969 140.277344 163.699219 179.777344 177.78125 C 192.351563 182.265625 204.738281 182.324219 217.292969 177.867188 C 256.8125 163.84375 296.355469 149.898438 335.890625 135.929688 C 337.210938 135.464844 338.550781 135.054688 340.542969 134.40625 "/>
<path style=" stroke:none;fill-rule:nonzero;fill:rgb(100%,45.092773%,0%);fill-opacity:1;" d="M 24.636719 314.914063 C 10.996094 314.855469 0.0078125 303.828125 0.0273438 290.226563 C 0.046875 276.660156 11.121094 265.628906 24.734375 265.609375 C 38.515625 265.589844 49.695313 276.816406 49.546875 290.519531 C 49.398438 304.121094 38.3125 314.976563 24.636719 314.914063 "/>
<g clip-path="url(#clip2)" clip-rule="nonzero">
<path style=" stroke:none;fill-rule:nonzero;fill:rgb(100%,45.092773%,0%);fill-opacity:1;" d="M 13.257813 337.613281 L 36.324219 337.613281 C 36.324219 348.042969 36.589844 358.753906 36.21875 369.4375 C 36.019531 375.234375 30.722656 379.667969 25.066406 379.855469 C 19.46875 380.039063 13.613281 375.71875 13.386719 370.082031 C 12.945313 359.148438 13.257813 348.183594 13.257813 337.613281 "/>
</g>
</g>
</svg>
