<?xml version="1.0" encoding="UTF-8"?>
<svg xmlns="http://www.w3.org/2000/svg" xmlns:xlink="http://www.w3.org/1999/xlink" width="383.91pt" height="325.51pt" viewBox="0 0 383.91 325.51" version="1.1">
<defs>
<clipPath id="clip1">
  <path d="M 0 175 L 85 175 L 85 325.511719 L 0 325.511719 Z M 0 175 "/>
</clipPath>
<clipPath id="clip2">
  <path d="M 102 146 L 282 146 L 282 325.511719 L 102 325.511719 Z M 102 146 "/>
</clipPath>
<clipPath id="clip3">
  <path d="M 299 175 L 383.910156 175 L 383.910156 325.511719 L 299 325.511719 Z M 299 175 "/>
</clipPath>
</defs>
<g id="surface1">
<g clip-path="url(#clip1)" clip-rule="nonzero">
<path style=" stroke:none;fill-rule:nonzero;fill:rgb(100%,45.092773%,0%);fill-opacity:1;" d="M 0 224.914063 C 1.617188 219.449219 2.574219 213.675781 4.972656 208.578125 C 14.21875 188.921875 29.800781 177.609375 51.59375 176.0625 C 62.488281 175.285156 73.484375 175.925781 84.75 175.925781 C 84.5 176.976563 84.207031 177.898438 84.066406 178.839844 C 82.804688 187.195313 80.589844 195.546875 80.5 203.917969 C 80.101563 239.992188 80.28125 276.078125 80.390625 312.160156 C 80.402344 316.472656 81.234375 320.78125 81.726563 325.425781 L 68.785156 325.425781 C 57.796875 325.425781 46.800781 325.136719 35.828125 325.488281 C 17.695313 326.074219 2.828125 313.949219 0.410156 296.726563 C 0.378906 296.511719 0.140625 296.324219 0 296.121094 "/>
</g>
<g clip-path="url(#clip2)" clip-rule="nonzero">
<path style=" stroke:none;fill-rule:nonzero;fill:rgb(100%,45.092773%,0%);fill-opacity:1;" d="M 191.804688 325.425781 C 166.703125 325.425781 141.605469 325.425781 116.503906 325.421875 C 106.460938 325.421875 102.621094 321.644531 102.621094 311.75 C 102.617188 275.535156 102.542969 239.320313 102.648438 203.109375 C 102.726563 175.898438 119.878906 154.308594 146.199219 148.1875 C 149.929688 147.320313 153.855469 146.960938 157.695313 146.941406 C 180.421875 146.828125 203.148438 146.710938 225.871094 146.925781 C 252.394531 147.179688 273.785156 164.449219 279.769531 190.296875 C 280.742188 194.503906 281.082031 198.941406 281.09375 203.277344 C 281.195313 239.738281 281.160156 276.203125 281.148438 312.664063 C 281.144531 321.316406 276.984375 325.410156 268.226563 325.417969 C 242.75 325.4375 217.277344 325.425781 191.804688 325.425781 "/>
</g>
<path style=" stroke:none;fill-rule:nonzero;fill:rgb(100%,45.092773%,0%);fill-opacity:1;" d="M 191.992188 -0.00390625 C 228.480469 0.0664063 258.464844 29.890625 258.523438 66.179688 C 258.585938 102.898438 228.707031 132.980469 191.96875 133.1875 C 155.425781 133.394531 124.953125 102.6875 125.253906 65.96875 C 125.554688 29.546875 155.515625 -0.0703125 191.992188 -0.00390625 "/>
<g clip-path="url(#clip3)" clip-rule="nonzero">
<path style=" stroke:none;fill-rule:nonzero;fill:rgb(100%,45.092773%,0%);fill-opacity:1;" d="M 302.660156 325.230469 C 302.925781 316.546875 303.386719 308.101563 303.410156 299.652344 C 303.5 269.054688 303.414063 238.453125 303.460938 207.855469 C 303.476563 197.5625 302.695313 187.40625 299.292969 177.59375 C 299.140625 177.152344 299.167969 176.644531 299.117188 176.234375 C 299.445313 176.003906 299.636719 175.746094 299.820313 175.753906 C 312.90625 176.085938 326.199219 175.085938 339.027344 177.074219 C 364.375 181.007813 383.179688 203.683594 383.652344 229.394531 C 384.03125 250.246094 383.953125 271.109375 383.703125 291.964844 C 383.488281 309.863281 370.804688 324.199219 353.4375 325.050781 C 336.386719 325.886719 319.257813 325.230469 302.660156 325.230469 "/>
</g>
<path style=" stroke:none;fill-rule:nonzero;fill:rgb(100%,45.092773%,0%);fill-opacity:1;" d="M 124.640625 112.003906 C 124.324219 139.542969 101.792969 161.960938 74.710938 161.6875 C 47.160156 161.40625 24.867188 138.945313 25.078125 111.675781 C 25.292969 83.976563 47.851563 61.777344 75.433594 62.121094 C 102.851563 62.46875 124.953125 84.871094 124.640625 112.003906 "/>
<path style=" stroke:none;fill-rule:nonzero;fill:rgb(100%,45.092773%,0%);fill-opacity:1;" d="M 358.695313 111.746094 C 358.804688 139.074219 336.484375 161.503906 308.992188 161.6875 C 281.84375 161.867188 259.382813 139.453125 259.132813 111.933594 C 258.882813 84.628906 281.265625 62.175781 308.785156 62.117188 C 336.257813 62.0625 358.582031 84.261719 358.695313 111.746094 "/>
</g>
</svg>
