<?xml version="1.0" encoding="UTF-8"?>
<svg xmlns="http://www.w3.org/2000/svg" xmlns:xlink="http://www.w3.org/1999/xlink" width="355.58pt" height="355.59pt" viewBox="0 0 355.58 355.59" version="1.1">
<defs>
<clipPath id="clip1">
  <path d="M 0 0 L 355.578125 0 L 355.578125 355.589844 L 0 355.589844 Z M 0 0 "/>
</clipPath>
</defs>
<g id="surface1">
<g clip-path="url(#clip1)" clip-rule="nonzero">
<path style=" stroke:none;fill-rule:nonzero;fill:rgb(0%,16.868591%,21.556091%);fill-opacity:1;" d="M 253.945313 17.472656 C 249.167969 22.160156 244.824219 26.71875 240.164063 30.929688 C 233.976563 36.523438 229.734375 42.832031 231.445313 52.203125 C 190.402344 36.277344 150.734375 37.609375 112.390625 58.292969 C 86.535156 72.246094 67.234375 92.828125 54.695313 119.425781 C 29.023438 173.882813 41.464844 237.113281 85.660156 278.066406 C 128.808594 318.046875 193.855469 325.558594 245.050781 296.171875 C 274.914063 279.03125 295.660156 254.058594 306.777344 221.414063 C 317.839844 188.925781 316.21875 156.691406 303.417969 124.628906 C 304.851563 124.546875 305.910156 124.402344 306.964844 124.433594 C 312.734375 124.609375 317.507813 122.507813 321.53125 118.398438 C 326.960938 112.847656 332.484375 107.394531 338.027344 101.84375 C 367.453125 158.957031 363.902344 249.769531 296.234375 310.007813 C 226.949219 371.691406 123.609375 370.507813 57.042969 308.058594 C -10.101563 245.074219 -19.109375 142.351563 36.082031 70.484375 C 93.460938 -4.222656 188.5625 -15.1875 253.945313 17.472656 "/>
</g>
<path style=" stroke:none;fill-rule:nonzero;fill:rgb(0%,16.868591%,21.556091%);fill-opacity:1;" d="M 262.472656 136.097656 C 280.734375 170.308594 275.363281 221.410156 236.136719 252.359375 C 198.539063 282.023438 143.949219 278.503906 110.367188 244.265625 C 76.152344 209.378906 73.546875 155.207031 104.605469 117.574219 C 136.402344 79.042969 186.875 75.460938 219.378906 93.03125 C 218.800781 93.699219 218.28125 94.371094 217.683594 94.972656 C 208.269531 104.402344 198.894531 113.871094 189.355469 123.175781 C 188.238281 124.265625 186.113281 125.082031 184.601563 124.890625 C 154.84375 121.140625 128.761719 141.703125 124.742188 172.253906 C 121.117188 199.800781 142.121094 226.601563 170.355469 230.460938 C 203.503906 234.988281 232.65625 208.742188 230.828125 175.355469 C 230.503906 169.417969 232.121094 165.875 236.144531 162.105469 C 244.242188 154.519531 251.921875 146.480469 259.78125 138.636719 C 260.640625 137.777344 261.546875 136.96875 262.472656 136.097656 "/>
<path style=" stroke:none;fill-rule:nonzero;fill:rgb(0%,16.868591%,21.556091%);fill-opacity:1;" d="M 296.285156 33.210938 C 301.859375 26.925781 307.339844 22.457031 315.269531 23.054688 C 319.855469 23.398438 323.917969 25.109375 327.136719 28.4375 C 331.429688 32.871094 333.152344 38.210938 332.277344 44.367188 C 331.410156 50.484375 327.320313 54.589844 322.355469 59.25 C 330.808594 59.25 338.269531 59.246094 345.726563 59.25 C 347.082031 59.25 348.628906 58.855469 349.753906 59.367188 C 351.636719 60.226563 354.042969 61.328125 354.746094 62.96875 C 355.449219 64.597656 354.480469 67.058594 353.929688 69.0625 C 353.695313 69.898438 352.652344 70.523438 351.953125 71.21875 C 339.304688 83.871094 326.617188 96.484375 314.035156 109.203125 C 311.703125 111.5625 309.230469 112.675781 305.871094 112.628906 C 295.015625 112.476563 284.152344 112.683594 273.300781 112.496094 C 270.335938 112.445313 268.285156 113.296875 266.207031 115.386719 C 241.582031 140.140625 216.847656 164.785156 192.1875 189.507813 C 187.050781 194.65625 181.175781 197.34375 173.835938 195.699219 C 160.445313 192.710938 154.867188 177.074219 163.339844 166.292969 C 164.398438 164.941406 165.65625 163.734375 166.878906 162.515625 C 191.386719 137.992188 215.890625 113.464844 240.457031 89.003906 C 242.25 87.21875 243.058594 85.46875 243.027344 82.894531 C 242.886719 71.671875 242.800781 60.4375 243.101563 49.21875 C 243.164063 46.789063 244.316406 43.824219 245.992188 42.101563 C 258.816406 28.933594 271.90625 16.019531 284.886719 2.996094 C 286.996094 0.878906 289.207031 -0.820313 292.378906 0.410156 C 295.664063 1.683594 296.34375 4.40625 296.3125 7.621094 C 296.234375 15.75 296.285156 23.882813 296.285156 33.210938 "/>
</g>
</svg>
