<?xml version="1.0" encoding="UTF-8"?>
<svg xmlns="http://www.w3.org/2000/svg" xmlns:xlink="http://www.w3.org/1999/xlink" width="330.87pt" height="383.07pt" viewBox="0 0 330.87 383.07" version="1.1">
<defs>
<clipPath id="clip1">
  <path d="M 0 35 L 330.871094 35 L 330.871094 383.070313 L 0 383.070313 Z M 0 35 "/>
</clipPath>
</defs>
<g id="surface1">
<path style=" stroke:none;fill-rule:nonzero;fill:rgb(0%,16.868591%,21.556091%);fill-opacity:1;" d="M 175.183594 -0.00390625 C 181.167969 0.992188 187.199219 1.78125 193.132813 3.027344 C 214.785156 7.570313 234.484375 15.910156 249.640625 32.800781 C 260.746094 45.179688 266.75 59.839844 268.664063 76.226563 C 269.222656 81.042969 269.132813 85.933594 269.617188 90.761719 C 269.734375 91.925781 270.703125 93.527344 271.714844 93.996094 C 283.867188 99.65625 289.722656 109.207031 289.746094 122.484375 C 289.761719 130.589844 289.765625 138.695313 289.746094 146.800781 C 289.703125 167.488281 275.152344 180.398438 253.882813 177.988281 C 253.882813 176.644531 253.882813 175.21875 253.882813 173.792969 C 253.863281 145.238281 253.964844 116.683594 253.796875 88.128906 C 253.613281 56.976563 238.671875 35.507813 209.878906 24.261719 C 177.386719 11.574219 144.925781 12.515625 113.480469 27.863281 C 89.96875 39.339844 77.855469 59.007813 77.300781 85.003906 C 76.671875 114.417969 77.074219 143.855469 77.027344 173.285156 C 77.023438 174.761719 77.027344 176.234375 77.027344 177.644531 C 59.578125 181.191406 42.890625 169.75 41.53125 152.152344 C 40.648438 140.75 40.726563 129.1875 41.503906 117.769531 C 42.246094 106.90625 48.496094 99.015625 58.441406 94.46875 C 60.796875 93.390625 61.460938 92.230469 61.453125 89.785156 C 61.398438 73.957031 64.371094 58.84375 72.496094 45.007813 C 82.882813 27.320313 98.515625 16.132813 117.308594 8.953125 C 128.886719 4.535156 140.914063 1.925781 153.246094 0.707031 C 154.335938 0.601563 155.398438 0.238281 156.472656 -0.00390625 "/>
<g clip-path="url(#clip1)" clip-rule="nonzero">
<path style=" stroke:none;fill-rule:nonzero;fill:rgb(0%,16.868591%,21.556091%);fill-opacity:1;" d="M 207.132813 226.378906 C 217.890625 231.804688 228.394531 237.148438 238.941406 242.40625 C 246.964844 246.40625 255.082031 250.214844 263.089844 254.242188 C 290.328125 267.953125 310.878906 288.15625 322.914063 316.464844 C 327.683594 327.683594 330.183594 339.488281 330.84375 351.644531 C 331.203125 358.289063 326.808594 362.230469 321.441406 364.222656 C 314.257813 366.890625 306.734375 368.902344 299.195313 370.308594 C 245.078125 380.386719 190.519531 384.914063 135.480469 382.378906 C 96.960938 380.601563 58.734375 376.164063 21.007813 368.054688 C 15.652344 366.902344 10.414063 364.492188 5.59375 361.816406 C 1.324219 359.453125 -0.378906 355.210938 0.0703125 350.023438 C 3.09375 315.222656 19.445313 287.894531 47.03125 267.183594 C 54.738281 261.394531 63.390625 256.730469 71.988281 252.285156 C 89.011719 243.480469 106.296875 235.183594 123.949219 226.441406 C 115.242188 216.148438 108.710938 205.003906 103.902344 192.070313 C 108.339844 194.515625 112.074219 196.886719 116.066406 198.695313 C 121.269531 201.050781 126.613281 203.140625 132.015625 205.003906 C 135.632813 206.246094 139.105469 207.078125 141.824219 210.382813 C 143.292969 212.160156 146.632813 213.070313 149.175781 213.167969 C 157.890625 213.5 166.628906 213.359375 175.355469 213.273438 C 181.519531 213.214844 185.996094 208.921875 186.171875 203.160156 C 186.347656 197.519531 181.933594 192.675781 175.859375 192.519531 C 166.765625 192.285156 157.65625 192.429688 148.550781 192.488281 C 147.332031 192.5 145.796875 192.570313 144.953125 193.269531 C 141.558594 196.082031 138.273438 194.527344 134.871094 193.496094 C 120.636719 189.183594 107.992188 182.308594 98.28125 170.753906 C 97.28125 169.558594 96.382813 168.0625 96.035156 166.566406 C 90.574219 143.019531 89.792969 119.128906 92.050781 95.210938 C 94.515625 69.105469 108.265625 50.890625 132.988281 41.785156 C 157.785156 32.65625 182.429688 33.550781 206.183594 45.5 C 225.800781 55.367188 236.40625 71.988281 238.59375 93.484375 C 242.035156 127.355469 239.570313 160.691406 226.84375 192.722656 C 222.316406 204.121094 216.644531 214.890625 208.6875 224.332031 C 208.21875 224.890625 207.804688 225.492188 207.132813 226.378906 "/>
</g>
</g>
</svg>
