<?xml version="1.0" encoding="UTF-8"?>
<svg xmlns="http://www.w3.org/2000/svg" xmlns:xlink="http://www.w3.org/1999/xlink" width="374.38pt" height="374.38pt" viewBox="0 0 374.38 374.38" version="1.1">
<defs>
<clipPath id="clip1">
  <path d="M 0 0 L 374.378906 0 L 374.378906 374.378906 L 0 374.378906 Z M 0 0 "/>
</clipPath>
</defs>
<g id="surface1">
<g clip-path="url(#clip1)" clip-rule="nonzero">
<path style=" stroke:none;fill-rule:nonzero;fill:rgb(0%,16.868591%,21.556091%);fill-opacity:1;" d="M 307.832031 187.265625 C 307.949219 121.019531 253.503906 66.535156 187.191406 66.546875 C 120.980469 66.558594 66.929688 120.492188 66.566406 186.914063 C 66.203125 253.035156 120.539063 307.574219 187.023438 307.816406 C 253.203125 308.054688 307.714844 253.664063 307.832031 187.265625 M 163.070313 -0.00390625 L 211.328125 -0.00390625 C 216.59375 1.71875 219.210938 5.65625 220.652344 10.761719 C 221.972656 15.441406 223.445313 20.089844 225.171875 24.628906 C 225.671875 25.945313 227.089844 27.488281 228.386719 27.84375 C 243.25 31.925781 257.359375 37.734375 270.722656 45.421875 C 271.886719 46.09375 273.972656 46.035156 275.25 45.46875 C 280.132813 43.292969 284.839844 40.722656 289.65625 38.390625 C 295.664063 35.488281 299.78125 36.152344 304.550781 40.882813 C 314.230469 50.492188 323.878906 60.140625 333.488281 69.824219 C 338.226563 74.597656 338.894531 78.707031 335.992188 84.714844 C 333.664063 89.53125 331.09375 94.238281 328.917969 99.121094 C 328.347656 100.402344 328.285156 102.488281 328.953125 103.648438 C 336.640625 117.011719 342.46875 131.113281 346.535156 145.980469 C 346.890625 147.277344 348.425781 148.707031 349.742188 149.207031 C 354.28125 150.933594 358.929688 152.402344 363.605469 153.726563 C 368.714844 155.171875 372.667969 157.773438 374.382813 163.050781 L 374.382813 211.308594 C 372.667969 216.59375 368.710938 219.191406 363.601563 220.640625 C 358.925781 221.960938 354.273438 223.433594 349.734375 225.160156 C 348.417969 225.660156 346.890625 227.089844 346.53125 228.390625 C 342.445313 243.257813 336.632813 257.371094 328.9375 270.738281 C 328.273438 271.894531 328.359375 273.980469 328.929688 275.265625 C 331.046875 280.046875 333.546875 284.652344 335.839844 289.355469 C 338.898438 295.621094 338.300781 299.695313 333.460938 304.566406 C 323.847656 314.253906 314.199219 323.90625 304.511719 333.515625 C 299.765625 338.226563 295.636719 338.871094 289.605469 335.941406 C 284.679688 333.550781 279.851563 330.953125 274.875 328.675781 C 273.789063 328.175781 271.972656 328.179688 270.964844 328.765625 C 257.527344 336.589844 243.296875 342.4375 228.304688 346.527344 C 227.078125 346.863281 225.683594 348.246094 225.238281 349.460938 C 223.351563 354.59375 221.808594 359.851563 220.105469 365.050781 C 217.925781 371.714844 214.398438 374.339844 207.445313 374.355469 C 193.921875 374.386719 180.398438 374.390625 166.871094 374.355469 C 160.09375 374.335938 156.476563 371.703125 154.367188 365.328125 C 152.648438 360.132813 151.132813 354.867188 149.230469 349.742188 C 148.742188 348.421875 147.3125 346.875 146.015625 346.519531 C 131.148438 342.4375 117.035156 336.625 103.664063 328.933594 C 102.503906 328.265625 100.417969 328.328125 99.136719 328.898438 C 94.253906 331.078125 89.542969 333.648438 84.726563 335.980469 C 78.695313 338.898438 74.648438 338.242188 69.84375 333.472656 C 60.15625 323.863281 50.507813 314.210938 40.894531 304.527344 C 36.164063 299.757813 35.507813 295.644531 38.417969 289.625 C 40.746094 284.808594 43.320313 280.101563 45.496094 275.214844 C 46.0625 273.9375 46.101563 271.851563 45.433594 270.683594 C 37.816406 257.417969 32 243.4375 27.964844 228.679688 C 27.578125 227.273438 26 225.683594 24.605469 225.152344 C 19.613281 223.242188 14.457031 221.765625 9.371094 220.101563 C 2.679688 217.910156 0.0429688 214.40625 0.0234375 207.476563 C -0.0078125 193.949219 -0.0078125 180.425781 0.0234375 166.902344 C 0.0429688 159.964844 2.675781 156.453125 9.359375 154.265625 C 14.445313 152.601563 19.589844 151.097656 24.597656 149.226563 C 25.921875 148.734375 27.492188 147.328125 27.847656 146.039063 C 31.945313 131.046875 37.800781 116.824219 45.632813 103.386719 C 46.214844 102.386719 46.191406 100.566406 45.691406 99.476563 C 43.414063 94.5 40.8125 89.675781 38.425781 84.746094 C 35.503906 78.726563 36.160156 74.609375 40.886719 69.847656 C 50.496094 60.160156 60.148438 50.511719 69.832031 40.898438 C 74.730469 36.035156 78.714844 35.453125 85.035156 38.542969 C 89.734375 40.839844 94.34375 43.335938 99.121094 45.453125 C 100.40625 46.023438 102.492188 46.101563 103.648438 45.4375 C 117.019531 37.742188 131.132813 31.929688 146 27.847656 C 147.296875 27.488281 148.726563 25.953125 149.226563 24.636719 C 150.949219 20.097656 152.425781 15.449219 153.746094 10.769531 C 155.1875 5.660156 157.804688 1.71875 163.070313 -0.00390625 "/>
</g>
<path style=" stroke:none;fill-rule:nonzero;fill:rgb(0%,16.868591%,21.556091%);fill-opacity:1;" d="M 198.152344 128.257813 C 198.152344 125.945313 198.234375 123.625 198.132813 121.316406 C 197.867188 115.054688 193.121094 110.398438 187.132813 110.433594 C 181.148438 110.472656 176.460938 115.144531 176.265625 121.445313 C 176.144531 125.460938 176.066406 129.492188 176.289063 133.5 C 176.449219 136.417969 175.511719 137.824219 172.742188 139.210938 C 161.261719 144.949219 154.746094 154.410156 154.371094 167.328125 C 153.996094 180.316406 159.773438 190.222656 170.960938 196.980469 C 176.589844 200.386719 182.894531 200.800781 189.15625 201.710938 C 194.601563 202.5 198.425781 207.652344 198.035156 212.976563 C 197.617188 218.640625 193.121094 223 187.515625 223.183594 C 181.8125 223.367188 177.085938 219.449219 176.273438 213.835938 C 176.113281 212.75 176.136719 211.640625 175.925781 210.570313 C 174.769531 204.6875 169.816406 200.910156 164.09375 201.496094 C 158.289063 202.09375 154.171875 206.664063 154.277344 212.675781 C 154.472656 223.648438 158.777344 233.09375 168.09375 238.601563 C 174.464844 242.359375 177.085938 246.132813 176.457031 253.460938 C 175.949219 259.394531 181.457031 263.984375 187.296875 263.929688 C 193.136719 263.875 197.804688 259.3125 198.128906 253.25 C 198.234375 251.183594 198.339844 249.089844 198.121094 247.042969 C 197.835938 244.253906 198.8125 242.890625 201.460938 241.574219 C 213.144531 235.769531 219.597656 226.039063 219.851563 213.0625 C 220.097656 200.3125 214.296875 190.429688 203.195313 183.785156 C 197.667969 180.476563 191.515625 179.941406 185.355469 179.160156 C 179.894531 178.472656 176.074219 173.695313 176.199219 168.160156 C 176.320313 162.816406 180.253906 158.429688 185.589844 157.691406 C 192.367188 156.75 197.304688 161.257813 198.144531 169.15625 C 198.820313 175.511719 203.519531 179.621094 209.730469 179.289063 C 215.726563 178.972656 220.273438 173.960938 219.960938 167.734375 C 219.378906 156.417969 214.828125 146.804688 204.859375 141.363281 C 198.859375 138.09375 196.945313 134.402344 198.152344 128.257813 M 186.746094 285.878906 C 132.269531 285.378906 88.101563 240.84375 88.5 186.820313 C 88.902344 132.253906 133.800781 87.808594 187.835938 88.488281 C 242.402344 89.175781 286.480469 133.78125 285.894531 187.726563 C 285.300781 242.242188 240.722656 286.371094 186.746094 285.878906 "/>
</g>
</svg>
