<?xml version="1.0" encoding="UTF-8"?>
<svg xmlns="http://www.w3.org/2000/svg" xmlns:xlink="http://www.w3.org/1999/xlink" width="389.47pt" height="376.51pt" viewBox="0 0 389.47 376.51" version="1.1">
<defs>
<clipPath id="clip1">
  <path d="M 361 114 L 389.46875 114 L 389.46875 132 L 361 132 Z M 361 114 "/>
</clipPath>
<clipPath id="clip2">
  <path d="M 96 279 L 183 279 L 183 376.511719 L 96 376.511719 Z M 96 279 "/>
</clipPath>
</defs>
<g id="surface1">
<g clip-path="url(#clip1)" clip-rule="nonzero">
<path style=" stroke:none;fill-rule:nonzero;fill:rgb(100%,100%,100%);fill-opacity:1;" d="M 389.46875 127.105469 C 386.683594 131.054688 383.097656 131.804688 378.597656 130.265625 C 374.789063 128.964844 370.804688 128.183594 366.925781 127.078125 C 362.628906 125.859375 360.519531 122.671875 361.445313 118.976563 C 362.351563 115.339844 365.902344 113.472656 370.140625 114.535156 C 374.664063 115.664063 379.261719 116.632813 383.621094 118.230469 C 385.804688 119.027344 387.535156 121.066406 389.46875 122.546875 "/>
</g>
<path style=" stroke:none;fill-rule:nonzero;fill:rgb(100%,100%,100%);fill-opacity:1;" d="M 68.71875 300.585938 C 55.957031 300.234375 45.449219 295.183594 38.824219 284.152344 C 26.964844 264.40625 15.34375 244.496094 4.25 224.3125 C -4.609375 208.191406 0.820313 187.832031 16.480469 178.257813 C 34.511719 167.234375 52.976563 156.921875 71.3125 146.402344 C 75.488281 144.011719 78.625 145.347656 81.492188 150.320313 C 94.730469 173.230469 107.945313 196.148438 121.175781 219.0625 C 121.808594 220.15625 122.410156 221.292969 123.199219 222.265625 C 125.222656 224.753906 128.773438 225.433594 131.40625 223.773438 C 134.195313 222.019531 135.269531 219.4375 134.199219 216.265625 C 133.679688 214.726563 132.808594 213.292969 131.988281 211.871094 C 118.839844 189.058594 105.671875 166.257813 92.515625 143.449219 C 89.160156 137.636719 89.628906 135.257813 95.140625 131.371094 C 138.5625 100.773438 174.453125 63.015625 203.105469 18.289063 C 215.101563 -0.429688 239.597656 0.246094 250.734375 19.5 C 280.339844 70.671875 309.882813 121.878906 339.402344 173.101563 C 350.417969 192.21875 339.179688 213.257813 317.136719 215.117188 C 303.136719 216.300781 289.085938 217.191406 275.179688 219.101563 C 238.34375 224.164063 203.046875 234.75 169.148438 250.011719 C 142.757813 261.894531 118.671875 277.929688 93.484375 291.980469 C 85.714844 296.316406 78.15625 301.019531 68.71875 300.585938 "/>
<g clip-path="url(#clip2)" clip-rule="nonzero">
<path style=" stroke:none;fill-rule:nonzero;fill:rgb(100%,100%,100%);fill-opacity:1;" d="M 146.925781 376.511719 C 139.519531 375.550781 133.359375 372.832031 129.6875 366.679688 C 118.871094 348.550781 108.386719 330.21875 97.894531 311.902344 C 95.832031 308.304688 96.898438 304.988281 100.578125 302.839844 C 113.460938 295.320313 126.382813 287.863281 139.339844 280.46875 C 143.324219 278.195313 146.621094 279.109375 148.972656 283.171875 C 159.238281 300.890625 169.5625 318.582031 179.570313 336.449219 C 185.164063 346.433594 181.921875 358.273438 172.296875 364.363281 C 167.386719 367.46875 162.363281 370.445313 157.171875 373.03125 C 153.972656 374.625 150.355469 375.378906 146.925781 376.511719 "/>
</g>
<path style=" stroke:none;fill-rule:nonzero;fill:rgb(100%,100%,100%);fill-opacity:1;" d="M 329.738281 100.585938 C 329.613281 101.96875 329.574219 104.265625 329.152344 106.488281 C 328.601563 109.359375 326.671875 111.664063 323.832031 111.566406 C 321.632813 111.492188 318.503906 110.367188 317.480469 108.683594 C 309.863281 96.175781 302.644531 83.425781 295.371094 70.714844 C 293.882813 68.109375 294.410156 65.519531 296.398438 63.363281 C 298.539063 61.039063 301.175781 60.902344 304.054688 61.941406 C 319.003906 67.335938 329.828125 83.210938 329.738281 100.585938 "/>
<path style=" stroke:none;fill-rule:nonzero;fill:rgb(100%,100%,100%);fill-opacity:1;" d="M 355.722656 68.40625 C 353.976563 66.664063 351.777344 65.179688 350.59375 63.113281 C 349.097656 60.5 350.164063 57.652344 352.625 56.128906 C 358.636719 52.394531 364.773438 48.847656 371.03125 45.546875 C 373.988281 43.984375 376.832031 45.179688 378.640625 47.890625 C 380.457031 50.609375 380.546875 54.046875 377.890625 55.796875 C 371.476563 60.03125 364.632813 63.613281 357.945313 67.429688 C 357.535156 67.664063 356.96875 67.632813 356.472656 67.722656 C 356.222656 67.949219 355.972656 68.179688 355.722656 68.40625 "/>
<path style=" stroke:none;fill-rule:nonzero;fill:rgb(100%,100%,100%);fill-opacity:1;" d="M 321.089844 8.039063 C 319.734375 12.871094 318.339844 18.789063 316.363281 24.503906 C 315.3125 27.558594 312.429688 28.851563 309.210938 28.019531 C 305.902344 27.171875 303.679688 24.765625 304.371094 21.324219 C 305.5625 15.394531 307.164063 9.523438 309.011719 3.761719 C 309.992188 0.710938 313.59375 -0.675781 316.570313 0.324219 C 319.6875 1.371094 321.246094 3.628906 321.089844 8.039063 "/>
</g>
</svg>
