<?xml version="1.0" encoding="UTF-8"?>
<svg xmlns="http://www.w3.org/2000/svg" xmlns:xlink="http://www.w3.org/1999/xlink" width="376.05pt" height="376pt" viewBox="0 0 376.05 376" version="1.1">
<defs>
<clipPath id="clip1">
  <path d="M 199 67 L 376.050781 67 L 376.050781 376 L 199 376 Z M 199 67 "/>
</clipPath>
</defs>
<g id="surface1">
<g clip-path="url(#clip1)" clip-rule="nonzero">
<path style=" stroke:none;fill-rule:nonzero;fill:rgb(100%,100%,100%);fill-opacity:1;" d="M 207.875 376 C 201.515625 373.070313 199.636719 368.03125 199.691406 361.207031 C 199.9375 332.332031 199.878906 303.453125 199.769531 274.574219 C 199.691406 254.050781 206.855469 236.671875 221.4375 222.226563 C 237.695313 206.121094 253.730469 189.796875 270.023438 173.730469 C 282.640625 161.289063 301.875 162.726563 312.078125 176.617188 C 320.160156 187.617188 318.90625 202.429688 308.765625 212.765625 C 297.800781 223.945313 286.644531 234.941406 275.574219 246.019531 C 274.1875 247.40625 272.75 248.742188 271.4375 250.191406 C 267.335938 254.714844 267.378906 261.238281 271.484375 265.453125 C 275.613281 269.691406 282.367188 270.148438 286.695313 265.882813 C 300.378906 252.398438 314.421875 239.21875 327.28125 224.980469 C 345.25 205.082031 343.070313 174.65625 323.238281 156.285156 C 321.539063 154.710938 320.914063 153.191406 320.921875 150.9375 C 321.007813 132.824219 320.953125 114.714844 320.976563 96.605469 C 320.996094 81.269531 330.710938 69.539063 345.238281 67.777344 C 361.089844 65.855469 373.320313 77.253906 375.476563 89.722656 C 375.558594 90.1875 375.851563 90.617188 376.046875 91.0625 L 376.046875 229.125 C 375.859375 229.5625 375.550781 229.992188 375.503906 230.445313 C 374.191406 243.03125 369.109375 254.082031 362.105469 264.472656 C 347.703125 285.835938 333.449219 307.304688 319.273438 328.816406 C 318.09375 330.605469 317.4375 333.046875 317.386719 335.207031 C 317.175781 343.875 317.007813 352.570313 317.390625 361.226563 C 317.691406 368.0625 315.550781 373.066406 309.21875 376 "/>
</g>
<path style=" stroke:none;fill-rule:nonzero;fill:rgb(100%,100%,100%);fill-opacity:1;" d="M 66.875 376 C 60.515625 373.070313 58.402344 368.042969 58.703125 361.203125 C 59.089844 352.535156 58.921875 343.832031 58.710938 335.148438 C 58.65625 332.988281 57.972656 330.550781 56.792969 328.757813 C 42.320313 306.808594 27.792969 284.894531 13.085938 263.101563 C 4.257813 250.019531 -0.0507813 235.769531 0 219.976563 C 0.136719 178.492188 0.00390625 137.015625 0.0703125 95.53125 C 0.0976563 79.6875 12.464844 67.417969 27.949219 67.574219 C 42.5 67.726563 54.820313 79.480469 55.027344 94.058594 C 55.300781 113.386719 55.144531 132.722656 55.046875 152.054688 C 55.039063 153.296875 54.230469 154.835938 53.300781 155.71875 C 31.511719 176.367188 31.011719 207.582031 52.21875 228.828125 C 64.320313 240.953125 76.433594 253.066406 88.5625 265.164063 C 91.863281 268.457031 95.761719 269.691406 100.296875 268.121094 C 104.65625 266.605469 107.070313 263.429688 107.625 258.914063 C 108.105469 254.96875 106.40625 251.851563 103.648438 249.109375 C 91.675781 237.203125 79.769531 225.230469 67.8125 213.308594 C 60.539063 206.0625 57.292969 197.464844 59.398438 187.285156 C 61.527344 176.972656 67.816406 169.996094 77.761719 166.714844 C 87.738281 163.421875 97.019531 165.351563 104.703125 172.507813 C 112.84375 180.09375 120.546875 188.152344 128.425781 196.019531 C 137.175781 204.746094 145.859375 213.539063 154.652344 222.222656 C 169.257813 236.636719 176.394531 254.058594 176.324219 274.574219 C 176.222656 303.453125 176.15625 332.332031 176.402344 361.207031 C 176.460938 368.03125 174.5625 373.0625 168.21875 376 "/>
<path style=" stroke:none;fill-rule:nonzero;fill:rgb(100%,100%,100%);fill-opacity:1;" d="M 205.003906 51.246094 C 215.605469 59.84375 225.304688 68.6875 235.988281 76.109375 C 247.4375 84.0625 263.710938 80.886719 272.84375 70.226563 C 282.113281 59.410156 282.203125 43.230469 273.046875 32.492188 C 263.71875 21.546875 247.5625 18.316406 235.972656 26.382813 C 225.300781 33.808594 215.609375 42.644531 205.003906 51.246094 M 170.953125 51.238281 C 160.902344 42.96875 151.597656 34.625 141.578125 27.246094 C 129.617188 18.433594 113.058594 20.988281 103.1875 32.320313 C 93.78125 43.113281 93.953125 59.882813 103.582031 70.617188 C 113.394531 81.5625 130.109375 83.84375 141.8125 75.097656 C 151.675781 67.722656 160.917969 59.507813 170.953125 51.238281 M 256.34375 -0.00390625 C 259.984375 0.960938 263.699219 1.699219 267.253906 2.910156 C 290.136719 10.726563 304.652344 33.511719 301.597656 56.65625 C 298.257813 81.980469 279.324219 100.285156 254.53125 102.234375 C 240.5 103.335938 228.265625 99.03125 217.53125 90.136719 C 208.488281 82.640625 199.441406 75.148438 190.496094 67.535156 C 188.632813 65.949219 187.449219 65.96875 185.589844 67.550781 C 176.363281 75.398438 167.136719 83.257813 157.679688 90.824219 C 127.632813 114.871094 83.503906 99.417969 75.355469 62.082031 C 69.089844 33.363281 88.261719 5.335938 117.335938 0.695313 C 118.15625 0.5625 118.945313 0.234375 119.75 -0.00390625 L 131.5 -0.00390625 C 141.304688 1.996094 150.472656 5.390625 158.203125 12.015625 C 162.011719 15.277344 165.894531 18.445313 169.75 21.652344 C 175.835938 26.714844 181.921875 31.769531 188.066406 36.878906 C 196.023438 30.253906 203.558594 23.632813 211.46875 17.496094 C 217.613281 12.730469 223.96875 8.105469 230.734375 4.316406 C 234.863281 2.003906 239.941406 1.378906 244.59375 -0.00390625 "/>
</g>
</svg>
