<?xml version="1.0" encoding="UTF-8"?>
<svg xmlns="http://www.w3.org/2000/svg" xmlns:xlink="http://www.w3.org/1999/xlink" width="382.33pt" height="382.33pt" viewBox="0 0 382.33 382.33" version="1.1">
<defs>
<clipPath id="clip1">
  <path d="M 0 0 L 382.328125 0 L 382.328125 382.328125 L 0 382.328125 Z M 0 0 "/>
</clipPath>
</defs>
<g id="surface1">
<g clip-path="url(#clip1)" clip-rule="nonzero">
<path style=" stroke:none;fill-rule:nonzero;fill:rgb(0%,16.868591%,21.556091%);fill-opacity:1;" d="M 308.90625 191.328125 L 309.246094 191.328125 C 309.246094 177.058594 309.347656 162.789063 309.199219 148.523438 C 309.140625 142.933594 308.929688 137.292969 308.101563 131.777344 C 304.414063 107.328125 292.328125 89.085938 268.613281 79.828125 C 258.78125 75.988281 248.464844 74.347656 237.964844 74.304688 C 208.023438 74.1875 178.085938 74.183594 148.148438 74.328125 C 141.804688 74.359375 135.386719 74.742188 129.140625 75.78125 C 105.050781 79.800781 87.195313 92.089844 78.273438 115.5625 C 74.617188 125.183594 73.101563 135.234375 73.09375 145.503906 C 73.070313 175.1875 73.027344 204.875 73.132813 234.558594 C 73.152344 240.015625 73.425781 245.535156 74.261719 250.917969 C 77.785156 273.617188 88.648438 291.226563 110.191406 301.027344 C 120.777344 305.84375 132.0625 307.933594 143.601563 308 C 175.320313 308.179688 207.046875 308.203125 238.769531 307.988281 C 251.085938 307.90625 263.097656 305.601563 274.238281 300.027344 C 297.097656 288.585938 307.171875 268.738281 308.691406 244.429688 C 309.792969 226.796875 308.90625 209.035156 308.90625 191.328125 M 191.109375 382.332031 C 85.5 382.300781 -0.125 296.496094 0 190.816406 C 0.125 85.421875 85.929688 -0.121094 191.40625 -0.00390625 C 296.875 0.117188 382.398438 85.808594 382.332031 191.304688 C 382.261719 296.761719 296.578125 382.359375 191.109375 382.332031 "/>
</g>
<path style=" stroke:none;fill-rule:nonzero;fill:rgb(0%,16.868591%,21.556091%);fill-opacity:1;" d="M 253.890625 141.6875 C 260.699219 141.601563 266.179688 135.996094 266.085938 129.207031 C 265.992188 122.382813 260.464844 116.945313 253.628906 116.960938 C 246.644531 116.96875 241.050781 122.710938 241.253906 129.652344 C 241.457031 136.535156 246.960938 141.777344 253.890625 141.6875 M 190.925781 253.300781 C 225.027344 253.621094 253.046875 225.996094 253.304688 191.800781 C 253.566406 157.429688 226.339844 129.472656 192.175781 129.027344 C 157.472656 128.578125 129.417969 155.90625 129.035156 190.53125 C 128.648438 225.089844 156.140625 252.972656 190.925781 253.300781 M 191.261719 96.394531 C 206.808594 96.394531 222.355469 96.246094 237.898438 96.480469 C 243.082031 96.558594 248.359375 97.140625 253.410156 98.292969 C 272.171875 102.574219 284.300781 116.246094 286.691406 135.484375 C 287.207031 139.640625 287.46875 143.859375 287.480469 148.050781 C 287.546875 177.363281 287.734375 206.675781 287.355469 235.980469 C 287.265625 243.121094 286.15625 250.554688 283.882813 257.296875 C 277.992188 274.742188 264.738281 284.03125 246.84375 285.023438 C 224.605469 286.257813 202.28125 286.144531 179.992188 286.210938 C 165.222656 286.253906 150.40625 286.183594 135.691406 285.113281 C 113.203125 283.472656 98.113281 268.226563 95.546875 245.6875 C 95.101563 241.777344 94.84375 237.820313 94.835938 233.882813 C 94.78125 204.445313 94.59375 175.003906 94.96875 145.570313 C 95.054688 138.6875 96.257813 131.535156 98.460938 125.019531 C 104.367188 107.558594 117.628906 98.601563 135.496094 97.253906 C 150.972656 96.089844 166.554688 96.359375 182.089844 96.019531 C 185.144531 95.953125 188.203125 96.011719 191.261719 96.011719 C 191.261719 96.140625 191.261719 96.269531 191.261719 96.394531 "/>
<path style=" stroke:none;fill-rule:nonzero;fill:rgb(0%,16.868591%,21.556091%);fill-opacity:1;" d="M 191.710938 151.09375 C 214.070313 151.53125 231.714844 169.65625 231.242188 191.703125 C 230.757813 214.089844 212.695313 231.671875 190.625 231.234375 C 168.304688 230.789063 150.609375 212.613281 151.085938 190.617188 C 151.566406 168.25 169.644531 150.660156 191.710938 151.09375 "/>
</g>
</svg>
