<?xml version="1.0" encoding="UTF-8"?>
<svg xmlns="http://www.w3.org/2000/svg" xmlns:xlink="http://www.w3.org/1999/xlink" width="350.51pt" height="262.63pt" viewBox="0 0 350.51 262.63" version="1.1">
<defs>
<clipPath id="clip1">
  <path d="M 0 73 L 350.511719 73 L 350.511719 262.628906 L 0 262.628906 Z M 0 73 "/>
</clipPath>
<clipPath id="clip2">
  <path d="M 0 0 L 350.511719 0 L 350.511719 160 L 0 160 Z M 0 0 "/>
</clipPath>
</defs>
<g id="surface1">
<g clip-path="url(#clip1)" clip-rule="nonzero">
<path style=" stroke:none;fill-rule:nonzero;fill:rgb(100%,100%,100%);fill-opacity:1;" d="M 350.511719 73.808594 L 350.511719 234.683594 C 350.382813 234.867188 350.183594 235.035156 350.132813 235.238281 C 345.488281 253.804688 334.203125 262.625 315.054688 262.625 C 221.847656 262.628906 128.640625 262.625 35.433594 262.625 C 34.292969 262.625 33.148438 262.644531 32.011719 262.601563 C 13.628906 261.949219 0.0585938 248.125 0.0351563 229.742188 C -0.0273438 178.632813 0.0117188 127.523438 0.0234375 76.414063 C 0.0234375 75.59375 0.191406 74.773438 0.296875 73.796875 C 0.914063 74.136719 1.226563 74.277344 1.503906 74.464844 C 48.839844 106.023438 96.167969 137.585938 143.503906 169.148438 C 164.734375 183.300781 185.757813 183.328125 207.019531 169.167969 C 249.332031 140.984375 291.625 112.769531 333.941406 84.585938 C 339.425781 80.933594 344.988281 77.398438 350.511719 73.808594 "/>
</g>
<g clip-path="url(#clip2)" clip-rule="nonzero">
<path style=" stroke:none;fill-rule:nonzero;fill:rgb(100%,100%,100%);fill-opacity:1;" d="M 350.511719 36.84375 C 349.210938 40.335938 348.511719 44.242188 346.453125 47.214844 C 343.652344 51.253906 340.355469 55.382813 336.339844 58.085938 C 288.753906 90.085938 241.050781 121.90625 193.246094 153.582031 C 181.460938 161.394531 169.019531 161.363281 157.238281 153.554688 C 109.34375 121.808594 61.566406 89.886719 13.789063 57.960938 C 2.324219 50.296875 -2.417969 37.019531 1.222656 23.78125 C 4.949219 10.25 16.539063 1.007813 30.980469 0.0742188 C 32.003906 0.0117188 33.03125 0.00390625 34.058594 0.00390625 C 128.179688 0 222.304688 -0.0078125 316.425781 0.0078125 C 332.015625 0.0078125 344.195313 8.351563 348.808594 22.101563 C 349.453125 24.023438 349.949219 25.992188 350.511719 27.941406 "/>
</g>
</g>
</svg>
