<?xml version="1.0" encoding="UTF-8"?>
<svg xmlns="http://www.w3.org/2000/svg" xmlns:xlink="http://www.w3.org/1999/xlink" width="368.71pt" height="368.78pt" viewBox="0 0 368.71 368.78" version="1.1">
<g id="surface1">
<path style=" stroke:none;fill-rule:nonzero;fill:rgb(0%,16.868591%,21.556091%);fill-opacity:1;" d="M 184.414063 91.953125 C 179.878906 92.359375 175.300781 92.5 170.8125 93.210938 C 109.882813 102.84375 75.839844 166.808594 101.714844 222.8125 C 102.394531 224.289063 102.59375 226.277344 102.28125 227.878906 C 99.46875 242.226563 96.457031 256.53125 93.585938 270.863281 C 92.652344 275.527344 94.449219 277.1875 99.054688 276.105469 C 112.816406 272.878906 126.554688 269.542969 140.351563 266.472656 C 142.371094 266.019531 144.898438 266.253906 146.796875 267.078125 C 158.273438 272.082031 170.230469 274.921875 182.71875 275.066406 C 238.160156 275.707031 280.949219 228.644531 275.195313 173.492188 C 270.394531 127.503906 230.921875 92.148438 184.414063 91.953125 M 195.871094 368.78125 L 172.828125 368.78125 C 171.914063 368.570313 171.011719 368.230469 170.089844 368.167969 C 153.601563 367.003906 137.597656 363.511719 122.070313 357.914063 C 30.894531 325.058594 -19.214844 227.808594 6.894531 134.496094 C 39.296875 18.722656 172.308594 -35.546875 276.730469 25.074219 C 325.953125 53.648438 355.53125 96.898438 365.933594 152.996094 C 367.15625 159.574219 367.800781 166.261719 368.710938 172.898438 L 368.710938 195.222656 C 368.503906 196.378906 368.257813 197.527344 368.097656 198.6875 C 367.097656 205.925781 366.464844 213.230469 365.078125 220.390625 C 350.722656 294.621094 290.671875 353.261719 216.09375 365.953125 C 209.386719 367.09375 202.613281 367.847656 195.871094 368.78125 "/>
<path style=" stroke:none;fill-rule:nonzero;fill:rgb(0%,16.868591%,21.556091%);fill-opacity:1;" d="M 137.4375 162.566406 C 138.800781 167.613281 139.746094 172.820313 141.613281 177.671875 C 145.160156 186.878906 151.332031 194.425781 158.21875 201.359375 C 169.222656 212.429688 181.21875 222.097656 196.546875 226.550781 C 212.519531 231.191406 223.644531 227.296875 231.796875 214.472656 C 234.980469 209.46875 233.433594 204.988281 227.839844 203.222656 C 224.527344 202.179688 221.035156 201.609375 217.863281 200.261719 C 210.84375 197.28125 205.046875 197.808594 200.246094 204.441406 C 198.199219 207.269531 195.023438 207.441406 191.839844 205.652344 C 180.59375 199.332031 171.132813 190.996094 163.453125 180.648438 C 161.015625 177.367188 161.148438 174.84375 163.640625 171.5 C 164.644531 170.15625 166.085938 168.984375 166.621094 167.480469 C 167.347656 165.460938 168.226563 162.890625 167.570313 161.089844 C 165.363281 155.03125 162.65625 149.132813 159.835938 143.320313 C 158.125 139.796875 153.984375 138.492188 150.996094 140.703125 C 143.75 146.0625 138.054688 152.53125 137.4375 162.566406 M 117.796875 251.273438 C 119.246094 244.078125 120.164063 237.417969 122 231.019531 C 123.699219 225.097656 122.6875 220.210938 120.019531 214.703125 C 101.078125 175.589844 121.265625 129.003906 162.621094 115.699219 C 201.445313 103.207031 243.183594 125.980469 253.46875 165.261719 C 263.957031 205.328125 239.167969 245.460938 198.835938 253.683594 C 182.390625 257.035156 166.601563 254.988281 151.722656 247.246094 C 147.710938 245.15625 144.113281 244.777344 139.796875 246.011719 C 132.789063 248.023438 125.609375 249.441406 117.796875 251.273438 "/>
</g>
</svg>
