<?xml version="1.0" encoding="UTF-8"?>
<svg xmlns="http://www.w3.org/2000/svg" xmlns:xlink="http://www.w3.org/1999/xlink" width="391.37pt" height="391.51pt" viewBox="0 0 391.37 391.51" version="1.1">
<g id="surface1">
<path style=" stroke:none;fill-rule:nonzero;fill:rgb(0%,16.868591%,21.556091%);fill-opacity:1;" d="M 190.683594 109.195313 C 190.671875 109.511719 190.65625 109.824219 190.644531 110.136719 C 189.242188 110.136719 187.835938 110.078125 186.4375 110.144531 C 159.730469 111.40625 132.996094 112.277344 106.328125 114.105469 C 91.085938 115.152344 80.878906 124.789063 77.9375 139.691406 C 73.273438 163.324219 72.699219 187.289063 73.890625 211.242188 C 74.582031 225.070313 75.859375 238.960938 78.214844 252.585938 C 80.546875 266.078125 89.625 274.136719 103.097656 276.75 C 108.707031 277.839844 114.429688 278.574219 120.136719 278.933594 C 173.351563 282.277344 226.566406 282.546875 279.75 278.25 C 301.875 276.460938 311.953125 267.007813 314.921875 245.304688 C 317.875 223.667969 318.898438 201.886719 317.675781 180.101563 C 316.902344 166.277344 315.632813 152.398438 313.277344 138.769531 C 311.03125 125.785156 302.292969 117.859375 289.402344 114.90625 C 285.570313 114.027344 281.621094 113.402344 277.699219 113.214844 C 248.699219 111.796875 219.691406 110.519531 190.683594 109.195313 M 183.519531 -0.00390625 L 207.988281 -0.00390625 C 210.496094 0.308594 213 0.652344 215.511719 0.925781 C 256.726563 5.398438 293.460938 20.660156 324.3125 48.371094 C 375.949219 94.753906 398.140625 153.035156 389.574219 221.847656 C 382.902344 275.425781 356.867188 318.914063 313.925781 351.605469 C 271.164063 384.160156 222.550781 396.566406 169.328125 389.664063 C 130.144531 384.585938 95.609375 368.574219 66.097656 342.261719 C 32.238281 312.078125 11.082031 274.59375 3.042969 229.875 C 1.738281 222.628906 1 215.285156 0 207.988281 L 0 183.519531 C 0.308594 181.011719 0.648438 178.507813 0.921875 175.992188 C 5.453125 134.527344 21.132813 97.859375 48.792969 66.601563 C 79.210938 32.226563 117.097656 10.851563 162.410156 2.949219 C 169.40625 1.730469 176.480469 0.96875 183.519531 -0.00390625 "/>
<path style=" stroke:none;fill-rule:nonzero;fill:rgb(0%,16.868591%,21.556091%);fill-opacity:1;" d="M 171.636719 159.214844 C 192.875 171.449219 213.65625 183.417969 235.066406 195.753906 C 213.65625 208.085938 192.875 220.054688 171.636719 232.289063 "/>
</g>
</svg>
