<?xml version="1.0" encoding="UTF-8"?>
<svg xmlns="http://www.w3.org/2000/svg" xmlns:xlink="http://www.w3.org/1999/xlink" width="378.46pt" height="332.75pt" viewBox="0 0 378.46 332.75" version="1.1">
<g id="surface1">
<path style=" stroke:none;fill-rule:nonzero;fill:rgb(0%,16.868591%,21.556091%);fill-opacity:1;" d="M 378.460938 165.539063 C 363.261719 173.28125 349.816406 183.15625 339.21875 196.757813 C 333.929688 203.546875 328.089844 209.914063 322.390625 216.378906 C 320.9375 218.023438 320.667969 219.191406 322.09375 221.078125 C 325.355469 225.394531 328.46875 229.839844 331.414063 234.378906 C 340.335938 248.148438 334.40625 265.554688 319.265625 269.902344 C 311.722656 272.066406 304.6875 270.425781 297.785156 265.484375 C 301.503906 277.289063 299.007813 286.757813 288.875 293.003906 C 279.722656 298.648438 270.789063 296.851563 262.261719 289.714844 C 263.570313 301.117188 260.378906 310.117188 249.738281 314.5625 C 239.484375 318.847656 230.808594 315.289063 223.546875 307.039063 C 224.492188 319.363281 220.996094 327.445313 212.546875 330.851563 C 199.894531 335.945313 191.003906 330.300781 184.527344 319.71875 C 162.316406 328.589844 150.371094 323.628906 142.972656 302.515625 C 132.613281 310.253906 121.363281 312.753906 109.425781 307.042969 C 97.503906 301.339844 91.804688 291.480469 92.207031 278.269531 C 86.871094 277.34375 81.5625 276.9375 76.570313 275.457031 C 65.011719 272.03125 59.308594 263.550781 57.742188 251.941406 C 57.597656 250.855469 57.453125 249.769531 57.285156 248.535156 C 41.953125 250.140625 29.226563 245.789063 23.53125 230.796875 C 17.117188 213.910156 24.285156 200.933594 38.679688 191.125 C 32.699219 178.769531 24.054688 169.144531 12.707031 161.910156 C 11.046875 160.855469 9.414063 159.621094 7.589844 158.984375 C 1.546875 156.878906 -0.046875 153.023438 0 146.542969 C 0.355469 99.269531 0.191406 51.988281 0.191406 4.710938 L 0.191406 -0.00390625 C 1.769531 0.636719 3.011719 1.078125 4.207031 1.628906 C 30.128906 13.515625 56.105469 25.277344 81.9375 37.367188 C 94.976563 43.46875 108.125 44.695313 122.136719 41.285156 C 146.578125 35.339844 170.910156 36.296875 194.925781 44.019531 C 196.535156 44.535156 198.28125 44.851563 199.96875 44.871094 C 229.761719 45.242188 259.554688 45.53125 289.347656 45.886719 C 295.632813 45.960938 301.625 44.820313 307.066406 41.660156 C 330.890625 27.835938 354.667969 13.929688 378.460938 0.0507813 L 378.460938 17.78125 C 377.269531 18.394531 376.039063 18.949219 374.886719 19.628906 C 356.027344 30.757813 337.121094 41.804688 318.359375 53.085938 C 309.992188 58.117188 301.109375 60.695313 291.378906 60.589844 C 272.171875 60.386719 252.964844 60.226563 233.761719 60.050781 C 232.527344 60.039063 231.300781 60.046875 230.066406 60.046875 C 232.433594 62.222656 235.019531 63.414063 237.28125 65.058594 C 243.632813 69.671875 250.109375 74.171875 256 79.335938 C 258.605469 81.613281 261.121094 85.199219 261.609375 88.496094 C 264.285156 106.621094 266.511719 124.792969 271.464844 142.519531 C 273.238281 148.882813 269.777344 154.941406 263.757813 157.574219 C 253.585938 162.015625 244.351563 159.441406 236.261719 149.824219 C 229.011719 141.207031 224.578125 131.085938 220.949219 120.578125 C 216.710938 108.296875 207.398438 100.476563 197.648438 92.929688 C 196.253906 93.910156 195.242188 94.589844 194.257813 95.3125 C 160.464844 120.199219 126.667969 145.085938 92.871094 169.96875 C 76.222656 182.230469 59.515625 194.410156 42.945313 206.78125 C 35.503906 212.332031 34.109375 221.3125 39.21875 228.246094 C 44.292969 235.144531 53.34375 236.394531 60.828125 231.121094 C 64.34375 228.644531 67.628906 225.828125 71.179688 223.40625 C 97.820313 205.246094 124.484375 187.128906 151.175781 169.046875 C 155.539063 166.089844 159.914063 166.820313 162.460938 170.664063 C 164.863281 174.289063 163.746094 178.367188 159.421875 181.335938 C 150.902344 187.1875 142.347656 192.988281 133.8125 198.824219 C 115.527344 211.320313 97.230469 223.808594 78.972656 236.34375 C 73.269531 240.257813 70.957031 247.046875 72.941406 253.554688 C 74.730469 259.441406 79.617188 262.796875 86.820313 263.03125 C 92.984375 263.230469 98.035156 260.921875 103.039063 257.230469 C 126.714844 239.773438 150.652344 222.6875 174.453125 205.402344 C 177.214844 203.394531 179.917969 203.28125 182.691406 204.910156 C 185.652344 206.652344 187.164063 209.589844 186.136719 212.746094 C 185.40625 214.992188 183.546875 217.238281 181.585938 218.65625 C 161.339844 233.292969 140.96875 247.753906 120.640625 262.277344 C 117.839844 264.277344 114.949219 266.191406 112.324219 268.40625 C 106.480469 273.332031 105.382813 281.753906 109.578125 288.09375 C 114.734375 295.890625 124.386719 297.148438 132.898438 291.003906 C 151.0625 277.898438 169.179688 264.726563 187.324219 251.59375 C 188.613281 250.660156 189.898438 249.65625 191.328125 248.984375 C 196.40625 246.589844 201.964844 249.8125 202.441406 255.355469 C 202.722656 258.617188 200.71875 260.542969 198.367188 262.304688 C 186.460938 271.25 174.546875 280.191406 162.683594 289.191406 C 158.882813 292.078125 156.820313 295.960938 157.820313 300.773438 C 158.753906 305.257813 161.921875 307.957031 166.21875 309.261719 C 171.398438 310.835938 178.363281 307.335938 178.914063 302.972656 C 180.335938 291.726563 189.160156 284.6875 200.597656 285.683594 C 204.328125 286.011719 209.128906 281.941406 209.328125 278.28125 C 210.125 263.894531 224.335938 254.820313 238.140625 259.882813 C 241.875 261.253906 243.054688 260.402344 242.804688 256.507813 C 241.925781 242.878906 254.488281 231.601563 267.984375 234.089844 C 271.105469 234.667969 274.085938 235.988281 277.28125 237.019531 C 271.066406 223.449219 272.421875 213.421875 281.386719 205.660156 C 289.730469 198.4375 300.144531 198.554688 311.808594 206.140625 C 312.914063 204.882813 314.046875 203.605469 315.167969 202.3125 C 322.902344 193.375 330.679688 184.472656 338.363281 175.496094 C 349.355469 162.65625 363.96875 154.953125 378.460938 147.070313 "/>
</g>
</svg>
