<?xml version="1.0" encoding="UTF-8"?>
<svg xmlns="http://www.w3.org/2000/svg" xmlns:xlink="http://www.w3.org/1999/xlink" width="360.96pt" height="384.78pt" viewBox="0 0 360.96 384.78" version="1.1">
<defs>
<clipPath id="clip1">
  <path d="M 90 0 L 360.960938 0 L 360.960938 339 L 90 339 Z M 90 0 "/>
</clipPath>
<clipPath id="clip2">
  <path d="M 0 292 L 159 292 L 159 384.78125 L 0 384.78125 Z M 0 292 "/>
</clipPath>
</defs>
<g id="surface1">
<g clip-path="url(#clip1)" clip-rule="nonzero">
<path style=" stroke:none;fill-rule:nonzero;fill:rgb(0%,16.868591%,21.556091%);fill-opacity:1;" d="M 180.703125 292.957031 L 315.554688 292.957031 L 315.554688 270.839844 L 180.703125 270.839844 Z M 315.675781 225.800781 L 180.824219 225.800781 L 180.824219 247.910156 L 315.675781 247.910156 Z M 225.597656 146.734375 C 226.425781 160.445313 232.492188 170.492188 244.445313 176.550781 C 247.367188 178.03125 248.398438 179.480469 248.269531 182.6875 C 248.003906 189.386719 248.1875 196.101563 248.1875 202.804688 L 270.742188 202.804688 C 270.742188 195.765625 270.90625 188.902344 270.664063 182.054688 C 270.566406 179.226563 271.5625 177.992188 274.046875 176.769531 C 286.078125 170.824219 292.796875 160.941406 293.128906 147.570313 C 293.457031 134.277344 287.503906 124.007813 275.878906 117.1875 C 270.53125 114.050781 264.667969 113.179688 258.628906 112.679688 C 252.6875 112.1875 248.359375 107.484375 248.21875 101.769531 C 248.078125 96.230469 252.167969 91.3125 257.703125 90.367188 C 263.261719 89.417969 268.566406 92.898438 270.304688 98.648438 C 270.578125 99.558594 270.796875 100.488281 271.019531 101.308594 L 292.957031 101.308594 C 293.761719 89.417969 285.769531 76.640625 273.988281 71.292969 C 271.398438 70.121094 270.582031 68.746094 270.671875 65.976563 C 270.890625 59.132813 270.742188 52.277344 270.742188 45.359375 L 248.203125 45.359375 L 248.203125 69.609375 C 247.144531 70.125 246.242188 70.550781 245.351563 70.996094 C 233.203125 77.023438 226.214844 86.800781 225.816406 100.339844 C 225.414063 113.953125 231.554688 124.382813 243.546875 131.1875 C 248.816406 134.179688 254.59375 134.914063 260.492188 135.441406 C 266.386719 135.96875 270.671875 140.800781 270.714844 146.515625 C 270.757813 152.054688 266.574219 156.921875 261.046875 157.761719 C 255.605469 158.585938 250.40625 155.167969 248.691406 149.621094 C 248.402344 148.691406 248.183594 147.738281 247.914063 146.734375 Z M 180.523438 0 L 360.964844 0 L 360.964844 338.316406 L 358.230469 338.316406 C 297.964844 338.316406 237.699219 338.292969 177.4375 338.390625 C 174.746094 338.394531 173.820313 337.308594 172.921875 335.085938 C 163.480469 311.628906 147.570313 293.964844 125.160156 282.191406 C 124.214844 281.691406 123.328125 281.074219 122.296875 280.441406 C 182.363281 241.042969 162.929688 148.269531 90.496094 136.207031 L 90.496094 90.171875 L 180.523438 90.171875 "/>
</g>
<g clip-path="url(#clip2)" clip-rule="nonzero">
<path style=" stroke:none;fill-rule:nonzero;fill:rgb(0%,16.868591%,21.556091%);fill-opacity:1;" d="M 157.734375 384.78125 L 0.320313 384.78125 C -1.960938 352.722656 7.828125 325.800781 34.703125 307.332031 C 60.929688 289.308594 89.136719 288.078125 117.070313 303.347656 C 146.039063 319.179688 160.644531 349.390625 157.734375 384.78125 "/>
</g>
<path style=" stroke:none;fill-rule:nonzero;fill:rgb(0%,16.868591%,21.556091%);fill-opacity:1;" d="M 79.027344 157.890625 C 110.09375 157.890625 135.460938 183.292969 135.402344 214.355469 C 135.347656 245.429688 109.902344 270.753906 78.84375 270.640625 C 47.914063 270.53125 22.714844 245.292969 22.65625 214.363281 C 22.59375 183.300781 47.957031 157.894531 79.027344 157.890625 "/>
<path style=" stroke:none;fill-rule:nonzero;fill:rgb(0%,16.868591%,21.556091%);fill-opacity:1;" d="M 157.773438 8.25 L 157.773438 67.390625 L 98.691406 67.390625 C 118.210938 47.851563 138.113281 27.929688 157.773438 8.25 "/>
</g>
</svg>
