<?xml version="1.0" encoding="UTF-8"?>
<svg xmlns="http://www.w3.org/2000/svg" xmlns:xlink="http://www.w3.org/1999/xlink" width="367.96pt" height="368pt" viewBox="0 0 367.96 368" version="1.1">
<defs>
<clipPath id="clip1">
  <path d="M 206 0 L 367.960938 0 L 367.960938 160 L 206 160 Z M 206 0 "/>
</clipPath>
</defs>
<g id="surface1">
<path style=" stroke:none;fill-rule:nonzero;fill:rgb(100%,100%,100%);fill-opacity:1;" d="M 70.398438 0.00390625 C 74.234375 0.00390625 78.066406 0.00390625 81.898438 0.00390625 C 82.9375 0.210938 83.96875 0.480469 85.019531 0.621094 C 106.140625 3.476563 123.304688 13.378906 135.890625 30.460938 C 150.671875 50.527344 154.171875 72.964844 147.769531 96.929688 C 146.9375 100.046875 147.578125 101.855469 149.78125 104.054688 C 187.777344 141.949219 225.71875 179.898438 263.546875 217.960938 C 266.152344 220.582031 268.421875 221.246094 271.9375 220.382813 C 283.796875 217.480469 295.863281 216.433594 307.878906 219.011719 C 335.828125 225.011719 354.363281 241.96875 363.894531 268.703125 C 365.953125 274.480469 366.640625 280.742188 367.960938 286.78125 L 367.960938 297.5625 C 367.195313 301.78125 366.480469 306.011719 365.660156 310.214844 C 364.796875 314.628906 362.515625 317.953125 358.039063 319.355469 C 353.550781 320.761719 349.8125 319.304688 346.605469 316.125 C 342.863281 312.414063 339.171875 308.65625 335.417969 304.960938 C 329.023438 298.660156 322.917969 292.023438 316.105469 286.207031 C 307.527344 278.890625 293.960938 280.550781 286.734375 289.132813 C 279.105469 298.1875 279.839844 310.195313 288.722656 319.207031 C 297.714844 328.332031 306.804688 337.355469 315.886719 346.398438 C 319.089844 349.585938 320.722656 353.289063 319.4375 357.769531 C 318.066406 362.535156 314.515625 364.914063 309.789063 365.769531 C 305.699219 366.503906 301.613281 367.253906 297.523438 368 L 286.742188 368 C 283.808594 367.503906 280.847656 367.144531 277.953125 366.484375 C 248.9375 359.886719 229.503906 342.5625 220.453125 314.175781 C 216.007813 300.246094 217.007813 286.019531 220.363281 271.972656 C 221.195313 268.488281 220.597656 266.199219 217.964844 263.578125 C 180.199219 225.988281 142.53125 188.296875 104.972656 150.496094 C 102.128906 147.640625 99.757813 146.769531 95.707031 147.699219 C 77.03125 151.992188 58.800781 151.40625 41.183594 142.570313 C 10.128906 126.996094 -6.511719 90.121094 2.753906 56.53125 C 5.050781 48.210938 14.058594 45.398438 20.554688 51.089844 C 23.429688 53.609375 26.015625 56.460938 28.746094 59.148438 C 36.425781 66.703125 43.84375 74.550781 51.878906 81.707031 C 59.089844 88.132813 70.558594 87.855469 78.125 81.941406 C 88.671875 73.695313 89.453125 59.179688 79.703125 49.1875 C 70.839844 40.105469 61.800781 31.1875 52.796875 22.242188 C 49.367188 18.832031 47.148438 15.082031 48.710938 10.054688 C 50.253906 5.097656 54 2.953125 58.832031 2.140625 C 62.699219 1.492188 66.542969 0.722656 70.398438 0.00390625 "/>
<path style=" stroke:none;fill-rule:nonzero;fill:rgb(100%,100%,100%);fill-opacity:1;" d="M 57.378906 325.03125 C 59.820313 325.136719 62.535156 322.875 65.136719 320.269531 C 85.773438 299.601563 106.433594 278.960938 127.078125 258.300781 C 127.921875 257.457031 128.777344 256.605469 129.511719 255.667969 C 134.796875 248.882813 130.960938 239.382813 122.441406 238.238281 C 118.417969 237.699219 115.300781 239.535156 112.546875 242.289063 C 91.40625 263.46875 70.242188 284.625 49.09375 305.796875 C 48.335938 306.554688 47.574219 307.347656 46.992188 308.242188 C 44.65625 311.855469 44.386719 315.652344 46.464844 319.449219 C 48.464844 323.109375 51.660156 324.933594 57.378906 325.03125 M 38.058594 368 C 30.679688 366.351563 23.605469 364.125 17.386719 359.496094 C -2.949219 344.351563 -5.964844 314.847656 11.09375 296.09375 C 14.152344 292.730469 17.433594 289.570313 20.652344 286.351563 C 51.121094 255.871094 81.601563 225.398438 112.066406 194.914063 C 113.078125 193.902344 113.972656 192.773438 114.671875 191.984375 C 135.167969 212.476563 155.363281 232.671875 176.355469 253.660156 C 175.621094 254.140625 174.242188 254.742188 173.253906 255.730469 C 142.574219 286.34375 111.808594 316.871094 81.363281 347.714844 C 71.863281 357.339844 62.109375 365.996094 48.121094 368 "/>
<g clip-path="url(#clip1)" clip-rule="nonzero">
<path style=" stroke:none;fill-rule:nonzero;fill:rgb(100%,100%,100%);fill-opacity:1;" d="M 367.960938 31.628906 C 356.066406 51.675781 344.261719 71.769531 332.238281 91.738281 C 328.253906 98.355469 320.738281 99.175781 315.078125 93.949219 C 312.984375 92.015625 311.132813 89.820313 308.539063 87.078125 C 284.265625 111.660156 260.40625 135.816406 236.710938 159.808594 C 226.355469 149.464844 216.378906 139.5 206.710938 129.835938 C 230.398438 105.878906 254.265625 81.734375 278.804688 56.914063 C 276.976563 55.363281 275.175781 54.160156 273.777344 52.597656 C 268.988281 47.242188 269.582031 39.839844 275.636719 36.121094 C 294.691406 24.417969 313.9375 13.023438 333.125 1.53125 C 334.136719 0.925781 335.261719 0.507813 336.335938 0.00390625 L 340.648438 0.00390625 C 343.414063 1.964844 346.421875 3.671875 348.898438 5.945313 C 353.453125 10.121094 357.839844 14.511719 362.019531 19.0625 C 364.292969 21.542969 365.996094 24.546875 367.960938 27.316406 "/>
</g>
</g>
</svg>
