<?xml version="1.0" encoding="UTF-8"?>
<svg xmlns="http://www.w3.org/2000/svg" xmlns:xlink="http://www.w3.org/1999/xlink" width="384pt" height="360.18pt" viewBox="0 0 384 360.18" version="1.1">
<defs>
<clipPath id="clip1">
  <path d="M 91 147 L 384 147 L 384 360.179688 L 91 360.179688 Z M 91 147 "/>
</clipPath>
</defs>
<g id="surface1">
<path style=" stroke:none;fill-rule:nonzero;fill:rgb(100%,100%,100%);fill-opacity:1;" d="M 0 132.878906 C 2.863281 126.519531 7.785156 124.425781 14.6875 124.492188 C 42.054688 124.757813 69.429688 124.574219 96.800781 124.648438 C 99.214844 124.652344 100.980469 124.046875 102.699219 122.265625 C 116.078125 108.390625 132.421875 101.816406 151.738281 102.042969 C 173.234375 102.296875 194.734375 102.175781 216.230469 102.074219 C 229.121094 102.015625 240.246094 106.242188 249.394531 115.304688 C 263.960938 129.726563 278.578125 144.101563 292.847656 158.808594 C 306.992188 173.386719 300.488281 196.910156 281.164063 201.480469 C 271.574219 203.746094 263.113281 201.066406 256.109375 194.09375 C 246.367188 184.390625 236.578125 174.734375 226.980469 164.894531 C 223.5 161.332031 219.621094 159.796875 214.648438 159.820313 C 188.152344 159.945313 161.65625 159.835938 135.160156 159.96875 C 133.265625 159.976563 131.003906 160.804688 129.535156 162.011719 C 116.222656 172.96875 103.050781 184.101563 89.832031 195.171875 C 61.328125 219.054688 68.144531 262.785156 102.558594 276.984375 C 103.566406 277.402344 104.785156 278.273438 105.125 279.210938 C 107.210938 285.023438 109.074219 290.921875 111.039063 296.871094 C 103.613281 297.746094 96.519531 297.371094 90.589844 290.535156 C 84.054688 283 76.644531 276.214844 69.433594 269.289063 C 68.171875 268.082031 66.023438 267.210938 64.277344 267.195313 C 47.90625 267.039063 31.527344 266.882813 15.160156 267.203125 C 8.199219 267.34375 3.0625 265.289063 0 258.878906 "/>
<g clip-path="url(#clip1)" clip-rule="nonzero">
<path style=" stroke:none;fill-rule:nonzero;fill:rgb(100%,100%,100%);fill-opacity:1;" d="M 210.667969 319.6875 C 206.871094 322.863281 203.082031 326.042969 199.28125 329.214844 C 188.332031 338.355469 174.332031 338.308594 164.566406 329.105469 C 154.96875 320.0625 154.058594 306.324219 162.285156 294.769531 C 162.425781 294.578125 162.484375 294.328125 162.8125 293.570313 C 156.835938 296.710938 150.898438 298 144.605469 296.757813 C 138.203125 295.496094 133.03125 292.210938 129.113281 287.011719 C 122.222656 277.882813 122.523438 267.21875 130.316406 254.796875 C 123.679688 258.230469 117.179688 259.40625 110.417969 257.546875 C 100.941406 254.941406 94.796875 248.75 92.378906 239.308594 C 89.949219 229.820313 92.347656 221.214844 99.671875 214.75 C 111.757813 204.09375 124.246094 193.894531 136.644531 183.59375 C 137.578125 182.820313 139.125 182.457031 140.390625 182.453125 C 163.636719 182.386719 186.878906 182.367188 210.121094 182.492188 C 211.628906 182.5 213.472656 183.394531 214.574219 184.472656 C 223.332031 193.03125 231.871094 201.816406 240.628906 210.375 C 254.410156 223.855469 270.847656 228.34375 289.214844 222.664063 C 307.285156 217.078125 318.3125 204.308594 322.066406 185.730469 C 324.574219 173.320313 322.042969 161.664063 315.316406 150.933594 C 314.800781 150.109375 314.265625 149.300781 313.476563 148.070313 C 314.902344 147.980469 315.949219 147.859375 316.996094 147.859375 C 335.117188 147.847656 353.234375 147.839844 371.355469 147.855469 C 379.59375 147.863281 383.992188 152.308594 383.992188 160.652344 C 384.007813 199.640625 384.007813 238.632813 383.992188 277.621094 C 383.988281 285.820313 379.464844 290.320313 371.195313 290.339844 C 356.949219 290.375 342.703125 290.472656 328.460938 290.257813 C 325.261719 290.207031 323.074219 291.375 320.8125 293.28125 C 297.015625 313.320313 273.171875 333.304688 249.347656 353.3125 C 234.144531 366.082031 212.753906 360.324219 207.421875 342.003906 C 205.136719 334.167969 206.730469 326.949219 210.667969 319.6875 "/>
</g>
<path style=" stroke:none;fill-rule:nonzero;fill:rgb(100%,100%,100%);fill-opacity:1;" d="M 109.992188 25.503906 C 112.539063 26.878906 115.550781 27.777344 117.554688 29.714844 C 127.609375 39.421875 137.460938 49.339844 147.261719 59.304688 C 151.957031 64.074219 151.867188 70.960938 147.359375 75.398438 C 142.855469 79.828125 136.074219 79.765625 131.257813 75.007813 C 121.402344 65.277344 111.636719 55.457031 101.871094 45.632813 C 98.269531 42.011719 97.257813 37.726563 99.222656 32.9375 C 100.941406 28.753906 104.953125 26.238281 109.992188 25.503906 "/>
<path style=" stroke:none;fill-rule:nonzero;fill:rgb(100%,100%,100%);fill-opacity:1;" d="M 272.652344 26.207031 C 279.148438 26.3125 282.75 28.429688 284.710938 32.859375 C 286.808594 37.601563 285.765625 41.9375 282.191406 45.5625 C 274.484375 53.386719 266.6875 61.117188 258.921875 68.882813 C 256.804688 71 254.738281 73.171875 252.546875 75.210938 C 247.660156 79.769531 240.824219 79.730469 236.441406 75.195313 C 232.132813 70.742188 232.109375 64.015625 236.671875 59.378906 C 246.480469 49.421875 256.320313 39.496094 266.367188 29.78125 C 268.378906 27.839844 271.367188 26.914063 272.652344 26.207031 "/>
<path style=" stroke:none;fill-rule:nonzero;fill:rgb(100%,100%,100%);fill-opacity:1;" d="M 203.25 29.902344 C 203.25 35.765625 203.289063 41.625 203.238281 47.488281 C 203.179688 54.523438 198.597656 59.417969 192.109375 59.472656 C 185.457031 59.523438 180.785156 54.582031 180.761719 47.332031 C 180.722656 35.605469 180.722656 23.882813 180.761719 12.160156 C 180.785156 4.894531 185.425781 -0.0390625 192.078125 0 C 198.710938 0.0390625 203.203125 4.96875 203.242188 12.316406 C 203.273438 18.175781 203.25 24.039063 203.25 29.902344 "/>
</g>
</svg>
