<?xml version="1.0" encoding="UTF-8"?>
<svg xmlns="http://www.w3.org/2000/svg" xmlns:xlink="http://www.w3.org/1999/xlink" width="324.4pt" height="324.41pt" viewBox="0 0 324.4 324.41" version="1.1">
<defs>
<clipPath id="clip1">
  <path d="M 0 0 L 324.398438 0 L 324.398438 324.410156 L 0 324.410156 Z M 0 0 "/>
</clipPath>
</defs>
<g id="surface1">
<g clip-path="url(#clip1)" clip-rule="nonzero">
<path style=" stroke:none;fill-rule:nonzero;fill:rgb(100%,45.092773%,0%);fill-opacity:1;" d="M 178.21875 89.464844 C 178.214844 89.464844 178.210938 89.464844 178.203125 89.464844 C 178.203125 85.882813 178.550781 82.257813 178.136719 78.722656 C 177.195313 70.714844 170.226563 64.832031 162.195313 64.855469 C 154.152344 64.878906 147.015625 70.742188 146.359375 78.789063 C 145.796875 85.703125 145.796875 92.734375 146.371094 99.644531 C 147.039063 107.707031 154.144531 113.460938 162.265625 113.445313 C 170.390625 113.4375 177.199219 107.652344 178.152344 99.578125 C 178.546875 96.25 178.21875 92.839844 178.21875 89.464844 M 145.976563 162.148438 L 145.976563 166.34375 C 145.976563 191.238281 145.953125 216.136719 146.007813 241.035156 C 146.011719 243.332031 146.160156 245.71875 146.785156 247.910156 C 148.957031 255.566406 156.460938 260.316406 164.304688 259.253906 C 172.707031 258.117188 178.425781 251.597656 178.453125 242.566406 C 178.546875 215.980469 178.609375 189.394531 178.441406 162.808594 C 178.347656 147.847656 169.777344 135.761719 156.253906 131.488281 C 146.40625 128.371094 136.125 129.199219 126.136719 130.367188 C 118.148438 131.300781 112.808594 139.535156 113.613281 147.292969 C 114.484375 155.660156 121.078125 161.929688 129.414063 162.125 C 134.777344 162.25 140.140625 162.148438 145.976563 162.148438 M 152.097656 -0.00390625 L 172.367188 -0.00390625 C 173.179688 0.175781 173.984375 0.453125 174.808594 0.515625 C 199.9375 2.421875 223.464844 9.605469 244.957031 22.761719 C 287.015625 48.507813 312.820313 85.652344 321.910156 134.214844 C 323.011719 140.101563 323.582031 146.085938 324.398438 152.027344 L 324.398438 172.296875 C 324.210938 173.214844 323.980469 174.132813 323.84375 175.058594 C 322.777344 182.246094 322.121094 189.523438 320.617188 196.617188 C 305.039063 270.050781 239.316406 323.769531 164.28125 324.261719 C 125.859375 324.515625 87.4375 324.382813 49.019531 324.300781 C 21.585938 324.242188 0.121094 302.632813 0.0820313 275.128906 C 0.03125 237.34375 -0.125 199.554688 0.203125 161.769531 C 0.289063 151.800781 1.246094 141.707031 3.085938 131.910156 C 10.1875 94.121094 28.847656 62.851563 58.140625 38.050781 C 80.34375 19.257813 105.894531 7.347656 134.628906 2.46875 C 140.425781 1.488281 146.273438 0.8125 152.097656 -0.00390625 "/>
</g>
</g>
</svg>
