<?xml version="1.0" encoding="UTF-8"?>
<svg xmlns="http://www.w3.org/2000/svg" xmlns:xlink="http://www.w3.org/1999/xlink" width="387.75pt" height="351.01pt" viewBox="0 0 387.75 351.01" version="1.1">
<g id="surface1">
<path style=" stroke:none;fill-rule:nonzero;fill:rgb(0%,16.868591%,21.556091%);fill-opacity:1;" d="M 193.777344 52.554688 C 186.410156 59.554688 179.457031 66.15625 171.886719 73.34375 L 214.851563 73.34375 C 215.0625 73.058594 215.277344 72.773438 215.488281 72.484375 C 212.46875 69.703125 209.457031 66.917969 206.433594 64.140625 C 202.371094 60.414063 198.300781 56.695313 193.777344 52.554688 M 87.484375 237.300781 C 97.457031 240.265625 106.929688 243.085938 116.898438 246.054688 C 109.246094 232.777344 102.089844 220.359375 94.625 207.410156 C 92.207031 217.527344 89.90625 227.160156 87.484375 237.300781 M 87.191406 113.429688 C 89.699219 123.78125 92.035156 133.4375 94.453125 143.421875 C 102.019531 130.28125 109.214844 117.789063 116.851563 104.527344 C 106.886719 107.519531 97.441406 110.351563 87.191406 113.429688 M 293.378906 207.0625 C 285.695313 220.363281 278.476563 232.863281 270.726563 246.28125 C 280.429688 243.214844 289.507813 240.398438 298.523438 237.402344 C 299.175781 237.183594 299.917969 235.578125 299.75 234.808594 C 297.765625 225.730469 295.617188 216.6875 293.378906 207.0625 M 216.34375 278.007813 C 216.140625 277.765625 215.941406 277.527344 215.738281 277.285156 L 171.964844 277.285156 C 171.789063 277.542969 171.613281 277.800781 171.4375 278.058594 C 178.445313 284.3125 185.429688 290.589844 192.507813 296.765625 C 193.042969 297.230469 194.59375 297.351563 195.066406 296.941406 C 202.21875 290.699219 209.269531 284.339844 216.34375 278.007813 M 270.894531 104.457031 C 278.667969 118.039063 285.921875 130.703125 293.730469 144.355469 C 296.179688 133.625 298.425781 123.785156 300.777344 113.457031 C 290.558594 110.378906 281.09375 107.527344 270.894531 104.457031 M 214.011719 37.863281 C 226.035156 50.851563 237.8125 63.617188 249.679688 76.308594 C 250.445313 77.125 251.824219 77.519531 252.992188 77.78125 C 264.171875 80.300781 275.394531 82.628906 286.539063 85.277344 C 291.878906 86.546875 297.082031 88.398438 302.835938 90.132813 C 302.757813 71.984375 301.339844 54.621094 291.179688 39.332031 C 282.828125 26.765625 270.542969 21.5 255.808594 22.164063 C 240.066406 22.871094 226.523438 29.796875 214.011719 37.863281 M 174.855469 38.449219 C 164.933594 32.066406 154.960938 26.339844 143.609375 24.15625 C 136.667969 22.824219 129.273438 22.078125 122.320313 22.953125 C 109.78125 24.53125 100.179688 31.605469 93.699219 42.511719 C 84.976563 57.199219 84.152344 73.355469 84.875 90.1875 C 86.585938 89.679688 87.757813 89.28125 88.960938 88.984375 C 103.972656 85.277344 119.007813 81.644531 133.992188 77.824219 C 135.894531 77.339844 137.929688 76.265625 139.269531 74.859375 C 147.257813 66.46875 154.96875 57.8125 162.972656 49.433594 C 166.59375 45.644531 170.671875 42.289063 174.855469 38.449219 M 85.011719 260.972656 C 84.363281 273.128906 84.855469 285.335938 88.816406 297.082031 C 94.480469 313.882813 105.167969 325.648438 123.585938 327.570313 C 142.746094 329.570313 159.121094 321.402344 174.304688 312.203125 C 165.742188 303.28125 156.613281 295.003906 149.023438 285.496094 C 142.0625 276.773438 134.53125 270.554688 122.960938 270.605469 C 122.839844 270.605469 122.71875 270.535156 122.59375 270.507813 C 110.179688 267.355469 97.769531 264.207031 85.011719 260.972656 M 302.890625 261.03125 C 289.882813 264.316406 277.347656 268.546875 264.472656 270.40625 C 253.621094 271.972656 246.039063 276.441406 239.246094 284.894531 C 231.460938 294.578125 222.089844 302.984375 213.300781 312.058594 C 224.296875 319.058594 236.347656 324.898438 249.886719 327.113281 C 273.535156 330.984375 291.882813 319.605469 299.207031 296.738281 C 302.964844 285.011719 303.460938 272.992188 302.890625 261.03125 M 321.96875 227.136719 C 336.625 218.898438 350.355469 209.742188 359.222656 194.953125 C 367.054688 181.894531 367.144531 168.574219 359.132813 155.648438 C 355.984375 150.566406 351.988281 145.863281 347.730469 141.640625 C 340.210938 134.191406 331.421875 128.390625 322.09375 123.714844 C 319.253906 134.625 316.675781 145.242188 313.679688 155.734375 C 311.75 162.503906 307.433594 169.09375 307.425781 175.765625 C 307.421875 182.574219 311.574219 189.328125 313.5625 196.207031 C 316.484375 206.324219 319.101563 216.527344 321.96875 227.136719 M 65.4375 226.746094 C 70.605469 210.011719 75.730469 193.566406 80.695313 177.070313 C 81.117188 175.675781 80.703125 173.882813 80.265625 172.394531 C 76.15625 158.523438 71.933594 144.6875 67.804688 130.824219 C 67.109375 128.492188 66.695313 126.074219 66.074219 123.347656 C 52.652344 130.722656 40.574219 138.851563 31.667969 150.863281 C 19.632813 167.09375 19.6875 183.925781 31.859375 199.992188 C 40.878906 211.898438 52.957031 220.023438 65.4375 226.746094 M 193.929688 95.203125 C 180.15625 96.222656 166.328125 97.210938 152.507813 98.34375 C 151.320313 98.441406 149.855469 99.214844 149.121094 100.152344 C 131.578125 122.503906 117.304688 146.761719 106.914063 173.242188 C 106.429688 174.484375 106.371094 176.246094 106.863281 177.46875 C 117.386719 203.578125 131.3125 227.761719 148.375 250.136719 C 149.046875 251.015625 150.285156 251.84375 151.351563 251.988281 C 179.515625 255.757813 207.695313 255.769531 235.863281 252.058594 C 237.160156 251.886719 238.707031 250.996094 239.496094 249.957031 C 256.171875 227.953125 270.039063 204.296875 280.683594 178.808594 C 281.40625 177.082031 281.402344 174.566406 280.714844 172.816406 C 270.441406 146.703125 256.261719 122.8125 239.046875 100.707031 C 238.113281 99.507813 236.296875 98.4375 234.804688 98.308594 C 221.242188 97.152344 207.660156 96.214844 193.929688 95.203125 M 0 181.589844 L 0 168.71875 C 0.203125 168.273438 0.527344 167.84375 0.59375 167.378906 C 2.257813 155.703125 7.25 145.523438 14.460938 136.328125 C 26.386719 121.105469 41.832031 110.351563 58.878906 101.746094 C 61.953125 100.195313 62.863281 98.648438 62.582031 95.171875 C 61.230469 78.570313 62.390625 62.160156 67.449219 46.160156 C 77.707031 13.703125 106.652344 -4.1875 140.179688 1.097656 C 158.359375 3.964844 174.59375 11.53125 189.808594 21.460938 C 192.984375 23.535156 194.980469 23.40625 198.054688 21.394531 C 212.175781 12.136719 227.3125 5.183594 243.96875 1.667969 C 276.296875 -5.152344 304.265625 9.164063 317.164063 39.574219 C 324.40625 56.644531 326.285156 74.6875 325.203125 92.976563 C 324.886719 98.277344 326.480469 100.574219 330.976563 102.847656 C 345.589844 110.25 358.742188 119.714844 369.769531 132.007813 C 392.78125 157.652344 393.8125 188.710938 372.273438 215.53125 C 360.425781 230.28125 345.164063 240.6875 328.445313 249.085938 C 325.601563 250.511719 324.921875 252.117188 325.167969 255.183594 C 326.496094 271.792969 325.363281 288.191406 320.359375 304.207031 C 310.128906 336.964844 280.234375 355.464844 246.398438 349.859375 C 228.363281 346.871094 212.464844 338.824219 197.511719 328.71875 C 194.800781 326.886719 192.980469 326.847656 190.257813 328.707031 C 176.308594 338.230469 161.371094 345.597656 144.734375 349.304688 C 112.644531 356.453125 82.09375 340.6875 69.648438 310.246094 C 62.464844 292.679688 61.210938 274.261719 62.542969 255.589844 C 62.777344 252.257813 62.101563 250.632813 59.046875 248.859375 C 49.910156 243.554688 40.722656 238.183594 32.285156 231.863281 C 19.382813 222.195313 9.042969 210.171875 3.503906 194.683594 C 1.988281 190.445313 1.148438 185.960938 0 181.589844 "/>
<path style=" stroke:none;fill-rule:nonzero;fill:rgb(0%,16.868591%,21.556091%);fill-opacity:1;" d="M 193.886719 138.300781 C 209.398438 126.03125 226.699219 129.023438 236.871094 136.605469 C 252.945313 148.585938 255.808594 171.746094 242.0625 186.320313 C 226.65625 202.660156 210.425781 218.222656 194.542969 234.113281 C 194.386719 234.269531 194.105469 234.304688 193.808594 234.425781 C 193.53125 234.25 193.175781 234.101563 192.921875 233.851563 C 177.308594 218.226563 161.390625 202.894531 146.183594 186.882813 C 129.230469 169.027344 136.714844 139.832031 159.886719 131.871094 C 169.183594 128.675781 181.386719 128.566406 193.886719 138.300781 "/>
</g>
</svg>
