<?xml version="1.0" encoding="UTF-8"?>
<svg xmlns="http://www.w3.org/2000/svg" xmlns:xlink="http://www.w3.org/1999/xlink" width="388.44pt" height="250.24pt" viewBox="0 0 388.44 250.24" version="1.1">
<defs>
<clipPath id="clip1">
  <path d="M 0 0 L 388.441406 0 L 388.441406 250.238281 L 0 250.238281 Z M 0 0 "/>
</clipPath>
</defs>
<g id="surface1">
<g clip-path="url(#clip1)" clip-rule="nonzero">
<path style=" stroke:none;fill-rule:nonzero;fill:rgb(0%,16.868591%,21.556091%);fill-opacity:1;" d="M 194.90625 204.742188 C 238.648438 204.824219 274.503906 169.09375 274.648438 125.277344 C 274.792969 81.5625 239.09375 45.679688 195.246094 45.472656 C 151.117188 45.261719 114.019531 81.484375 113.859375 124.9375 C 113.703125 168.265625 150.664063 204.660156 194.90625 204.742188 M 388.441406 127.382813 C 381.914063 136.019531 375.84375 145.050781 368.773438 153.21875 C 349.257813 175.761719 327.386719 195.800781 302.734375 212.664063 C 278.976563 228.917969 253.527344 241.457031 225.078125 247.203125 C 191.335938 254.019531 158.980469 249.050781 127.765625 235.394531 C 92.53125 219.980469 62.496094 197.070313 35.71875 169.847656 C 24.484375 158.429688 14.28125 145.984375 3.882813 133.777344 C -1.386719 127.59375 -1.183594 122.800781 3.835938 116.394531 C 31.59375 80.945313 63.839844 50.421875 102.804688 27.515625 C 133.058594 9.730469 165.375 -1.316406 201.023438 0.121094 C 228.957031 1.246094 254.828125 9.777344 279.15625 23.128906 C 317.8125 44.351563 349.800781 73.46875 377.554688 107.441406 C 381.519531 112.296875 384.828125 117.6875 388.441406 122.832031 "/>
</g>
<path style=" stroke:none;fill-rule:nonzero;fill:rgb(0%,16.868591%,21.556091%);fill-opacity:1;" d="M 159.375 124.871094 C 159.480469 106.734375 176.332031 90.804688 195.203125 91 C 213.835938 91.191406 229.164063 106.628906 229.121094 125.152344 C 229.074219 143.859375 213.3125 159.476563 194.738281 159.214844 C 175.601563 158.941406 159.269531 143.078125 159.375 124.871094 "/>
</g>
</svg>
