<?xml version="1.0" encoding="UTF-8"?>
<svg xmlns="http://www.w3.org/2000/svg" xmlns:xlink="http://www.w3.org/1999/xlink" width="368.7pt" height="368.71pt" viewBox="0 0 368.7 368.71" version="1.1">
<defs>
<clipPath id="clip1">
  <path d="M 0 0 L 368.699219 0 L 368.699219 368.710938 L 0 368.710938 Z M 0 0 "/>
</clipPath>
</defs>
<g id="surface1">
<g clip-path="url(#clip1)" clip-rule="nonzero">
<path style=" stroke:none;fill-rule:nonzero;fill:rgb(0%,16.868591%,21.556091%);fill-opacity:1;" d="M 200.285156 297.507813 L 200.285156 190.6875 L 230.222656 190.6875 C 231.515625 178.046875 232.773438 165.726563 234.066406 153.070313 L 200.214844 153.070313 C 200.214844 146.09375 200.210938 139.523438 200.21875 132.953125 C 200.226563 123.289063 202.953125 120.574219 212.648438 120.570313 C 219.457031 120.570313 226.261719 120.570313 233.277344 120.570313 L 233.277344 84.269531 C 232.742188 84.121094 232.292969 83.894531 231.84375 83.894531 C 220.324219 83.855469 208.773438 83.273438 197.296875 83.9375 C 174.074219 85.285156 160.371094 96.914063 156.855469 118.867188 C 155.296875 128.605469 156.015625 138.714844 155.714844 148.652344 C 155.671875 150.027344 155.710938 151.402344 155.710938 153.226563 L 134.878906 153.226563 L 134.878906 190.921875 L 155.785156 190.921875 L 155.785156 297.507813 Z M 195.882813 368.710938 L 172.835938 368.710938 C 168.339844 368.152344 163.832031 367.671875 159.347656 367.027344 C 122.65625 361.773438 90.238281 347.082031 62.527344 322.460938 C 30.515625 294.027344 10.523438 258.664063 2.875 216.46875 C 1.636719 209.652344 0.945313 202.738281 0 195.871094 L 0 172.828125 C 0.554688 168.324219 1.027344 163.808594 1.667969 159.316406 C 6.890625 122.863281 21.332031 90.519531 45.832031 63.011719 C 81.476563 22.992188 126.289063 1.824219 179.894531 0.105469 C 214.761719 -1.011719 247.652344 7.160156 277.398438 25.40625 C 334.757813 60.589844 365.59375 112.105469 368.53125 179.464844 C 370.066406 214.683594 361.304688 247.796875 342.972656 277.964844 C 313.789063 325.988281 271.457031 355.457031 216.113281 365.886719 C 209.429688 367.144531 202.628906 367.78125 195.882813 368.710938 "/>
</g>
</g>
</svg>
