<?xml version="1.0" encoding="UTF-8"?>
<svg xmlns="http://www.w3.org/2000/svg" xmlns:xlink="http://www.w3.org/1999/xlink" width="362.96pt" height="363.06pt" viewBox="0 0 362.96 363.06" version="1.1">
<defs>
<clipPath id="clip1">
  <path d="M 0 0 L 362.960938 0 L 362.960938 363.058594 L 0 363.058594 Z M 0 0 "/>
</clipPath>
</defs>
<g id="surface1">
<g clip-path="url(#clip1)" clip-rule="nonzero">
<path style=" stroke:none;fill-rule:nonzero;fill:rgb(0%,16.868591%,21.556091%);fill-opacity:1;" d="M 143.503906 229.683594 C 125.085938 243.355469 105.359375 248.789063 83.523438 246.964844 C 83.632813 247.296875 83.636719 247.597656 83.78125 247.710938 C 84.34375 248.136719 84.925781 248.535156 85.539063 248.882813 C 122.707031 269.722656 161.265625 272.128906 199.183594 253.078125 C 242.3125 231.40625 262.601563 194.113281 264.304688 146.378906 C 264.429688 142.863281 265.273438 140.613281 268.105469 138.472656 C 274.5 133.636719 279.800781 127.683594 284.40625 120.875 C 277.0625 122.863281 270.039063 124.765625 263.023438 126.664063 C 262.882813 126.34375 262.742188 126.023438 262.605469 125.699219 C 270.308594 120.277344 276.070313 113.414063 278.945313 104.792969 C 271.34375 107.480469 263.710938 110.128906 256.121094 112.894531 C 253.925781 113.695313 252.523438 113.078125 250.8125 111.550781 C 238.34375 100.429688 223.90625 97.382813 208.324219 103.105469 C 192.59375 108.882813 183.503906 120.675781 181.378906 137.386719 C 180.796875 141.964844 181.289063 146.683594 181.289063 151.546875 C 146.972656 149.128906 118.746094 134.578125 95.929688 107.925781 C 85.9375 129.890625 90.109375 148.097656 108.039063 163.417969 L 107.511719 164.171875 C 101.796875 162.550781 96.082031 160.929688 90.414063 159.320313 C 89.226563 176.34375 100.445313 190.800781 121.972656 200.542969 L 104.667969 200.542969 C 111.71875 218.34375 124.246094 227.753906 143.503906 229.683594 M 170.097656 0.00390625 L 192.785156 0.00390625 C 193.695313 0.203125 194.597656 0.515625 195.515625 0.582031 C 223.78125 2.695313 250.238281 10.808594 274.347656 25.652344 C 321.203125 54.5 350.066406 95.992188 360.175781 150.242188 C 361.402344 156.832031 362.046875 163.53125 362.960938 170.179688 L 362.960938 192.867188 C 362.433594 197.1875 361.996094 201.523438 361.363281 205.828125 C 354.191406 254.574219 331.496094 294.558594 292.632813 324.796875 C 252.757813 355.820313 207.21875 367.863281 157.207031 361.347656 C 114.441406 355.777344 78 336.894531 48.78125 305.148438 C 10.175781 263.207031 -5.40625 213.460938 1.648438 156.996094 C 6.171875 120.761719 21.089844 88.847656 45.355469 61.539063 C 73.554688 29.8125 108.601563 10.046875 150.515625 2.742188 C 157.003906 1.613281 163.566406 0.90625 170.097656 0.00390625 "/>
</g>
</g>
</svg>
