<?xml version="1.0" encoding="UTF-8"?>
<svg xmlns="http://www.w3.org/2000/svg" xmlns:xlink="http://www.w3.org/1999/xlink" width="316.48pt" height="316.91pt" viewBox="0 0 316.48 316.91" version="1.1">
<defs>
<clipPath id="clip1">
  <path d="M 0 0 L 316.480469 0 L 316.480469 208 L 0 208 Z M 0 0 "/>
</clipPath>
<clipPath id="clip2">
  <path d="M 23 160 L 313 160 L 313 316.910156 L 23 316.910156 Z M 23 160 "/>
</clipPath>
<clipPath id="clip3">
  <path d="M 309 159 L 316.480469 159 L 316.480469 165 L 309 165 Z M 309 159 "/>
</clipPath>
</defs>
<g id="surface1">
<g clip-path="url(#clip1)" clip-rule="nonzero">
<path style=" stroke:none;fill-rule:nonzero;fill:rgb(100%,100%,100%);fill-opacity:1;" d="M 182.917969 2.871094 C 209.550781 6.105469 234.238281 15.453125 253.738281 33.480469 C 271.117188 49.546875 290.5 64.738281 299.554688 88.113281 C 298.230469 92.277344 293.757813 90.148438 291.378906 92.199219 C 243.199219 92.367188 195.003906 93.378906 146.859375 92.199219 C 132.015625 91.835938 121.734375 97.355469 111.875 106.191406 C 106.320313 111.167969 101.519531 116.980469 96.117188 122.691406 C 99.988281 125.113281 103.46875 124.058594 106.722656 124.0625 C 151.445313 124.152344 196.175781 124.097656 240.902344 124.167969 C 244.636719 124.175781 248.550781 123.207031 252.078125 125.371094 C 251.03125 126.421875 249.820313 126.773438 248.402344 126.230469 C 249.078125 127.902344 250.304688 126.535156 251.140625 126.5625 C 271.15625 127.136719 291.207031 125.6875 311.214844 127.4375 C 315.863281 127.507813 313.78125 131.355469 314.242188 133.402344 C 316.28125 142.472656 317.0625 151.6875 316.03125 160.988281 C 313.382813 161.90625 311.660156 159.390625 309.316406 159.171875 C 303.121094 150.949219 292.890625 147.265625 286.769531 138.832031 C 283.617188 134.488281 278.714844 133.882813 275.449219 138.589844 C 268.050781 149.261719 255.429688 154.207031 247.867188 164.425781 C 244.953125 168.363281 241.523438 167.066406 238.605469 166.613281 C 228.359375 165.019531 225.226563 169.003906 226.535156 178.945313 C 227.433594 185.757813 226.324219 192.804688 226.796875 199.699219 C 227.195313 205.578125 225.273438 207.726563 219.328125 207.15625 C 213.480469 206.59375 207.5625 206.804688 201.675781 206.675781 C 200.132813 205.730469 198.414063 205.816406 196.707031 205.773438 C 181.980469 205.398438 182.34375 205.382813 181.828125 190.144531 C 181.570313 182.601563 184.363281 174.726563 180.105469 167.472656 C 167.632813 168.800781 158.566406 163.695313 151.355469 153.5625 C 146.023438 146.0625 135.984375 143.457031 130.882813 135.207031 C 129.050781 132.25 126.09375 134.074219 123.820313 136.152344 C 116.144531 143.171875 109.285156 151.050781 100.605469 157.011719 C 88.742188 165.164063 90.183594 177.316406 91.390625 191.304688 C 100.414063 182.210938 108.390625 174.261719 116.253906 166.203125 C 120.132813 162.226563 123.113281 160.390625 127.265625 166.507813 C 133.878906 176.253906 145.523438 180.5 153.535156 189.238281 C 158.277344 194.40625 162.652344 199.441406 166.414063 205.121094 C 164.382813 208.144531 161.71875 207 159.542969 207.003906 C 111.679688 207.082031 63.808594 206.941406 15.945313 207.207031 C 9.316406 207.246094 6.324219 205.65625 4.769531 198.703125 C -6.199219 149.769531 1.300781 105.246094 31.988281 64.355469 C 56.125 32.199219 87.210938 12.195313 125.917969 4.0625 C 142.671875 0.542969 159.972656 -2.117188 177.234375 2.355469 C 176.3125 3.515625 175.296875 4.003906 174.046875 2.800781 C 174.609375 3.511719 175.371094 3.769531 176.242188 3.6875 C 178.476563 3.484375 180.835938 4.292969 182.917969 2.871094 "/>
</g>
<g clip-path="url(#clip2)" clip-rule="nonzero">
<path style=" stroke:none;fill-rule:nonzero;fill:rgb(100%,100%,100%);fill-opacity:1;" d="M 28.753906 234.042969 C 44.722656 234.210938 60.691406 234.453125 76.65625 234.527344 C 100.371094 234.644531 124.089844 234.511719 147.804688 234.738281 C 162.589844 234.882813 177.425781 235.160156 192.160156 235.015625 C 205.144531 234.886719 212.824219 222.785156 221.65625 214.710938 C 240 197.941406 257.507813 180.257813 275.289063 162.875 C 278.800781 159.441406 281.617188 158.183594 282.976563 164.363281 C 284.386719 170.773438 291.304688 170.882813 295.144531 174.761719 C 300.246094 179.917969 303.800781 186.964844 310.695313 190.289063 C 314.113281 191.9375 312.371094 194.570313 311.847656 196.519531 C 304.902344 222.074219 293.605469 245.03125 274.773438 264.390625 C 256.3125 283.371094 236.484375 299.949219 210.898438 307.910156 C 157.648438 324.480469 107.921875 319.121094 62.777344 283.855469 C 47.589844 271.992188 34.585938 258.613281 24.589844 242.230469 C 21.554688 237.253906 24.789063 235.464844 28.753906 234.042969 "/>
</g>
<path style=" stroke:none;fill-rule:nonzero;fill:rgb(100%,100%,100%);fill-opacity:1;" d="M 311.214844 127.4375 L 241.476563 127.4375 C 241.449219 127.039063 241.425781 126.640625 241.402344 126.238281 C 244.960938 125.949219 248.519531 125.660156 252.078125 125.371094 C 270.117188 125.1875 288.15625 124.980469 306.195313 124.847656 C 308.222656 124.832031 310.378906 124.960938 311.214844 127.4375 "/>
<path style=" stroke:none;fill-rule:nonzero;fill:rgb(100%,100%,100%);fill-opacity:1;" d="M 180.101563 167.472656 C 186.183594 173.574219 182.519531 181.144531 182.796875 187.949219 C 183.414063 203.214844 182.996094 203.199219 198.113281 204.917969 C 199.347656 205.058594 200.488281 206.070313 201.671875 206.675781 C 180.257813 208.582031 180.269531 208.582031 180.25 187.152344 C 180.246094 180.59375 180.15625 174.03125 180.101563 167.472656 "/>
<path style=" stroke:none;fill-rule:nonzero;fill:rgb(100%,100%,100%);fill-opacity:1;" d="M 28.753906 234.042969 C 26.535156 236.351563 23.71875 238.355469 24.589844 242.230469 C 22.855469 239.882813 21.121094 237.535156 19.320313 235.097656 C 22.890625 232.660156 25.851563 233.726563 28.753906 234.042969 "/>
<path style=" stroke:none;fill-rule:nonzero;fill:rgb(100%,100%,100%);fill-opacity:1;" d="M 291.378906 92.199219 C 294.105469 90.839844 296.828125 89.476563 299.554688 88.113281 C 300.996094 93.058594 300.996094 93.058594 291.378906 92.199219 "/>
<path style=" stroke:none;fill-rule:nonzero;fill:rgb(100%,100%,100%);fill-opacity:1;" d="M 182.917969 2.871094 C 180.96875 5.367188 178.222656 4.632813 175.675781 4.578125 C 175.347656 4.570313 175.027344 3.941406 174.703125 3.601563 L 177.234375 2.355469 C 179.128906 2.527344 181.023438 2.699219 182.917969 2.871094 "/>
<g clip-path="url(#clip3)" clip-rule="nonzero">
<path style=" stroke:none;fill-rule:nonzero;fill:rgb(100%,100%,100%);fill-opacity:1;" d="M 309.316406 159.171875 C 311.835938 158.730469 313.964844 159.746094 316.03125 160.988281 C 315.882813 162.183594 315.730469 163.375 315.582031 164.566406 C 312.695313 163.691406 310.894531 161.558594 309.316406 159.171875 "/>
</g>
</g>
</svg>
