<?xml version="1.0" encoding="UTF-8"?>
<svg xmlns="http://www.w3.org/2000/svg" xmlns:xlink="http://www.w3.org/1999/xlink" width="365.35pt" height="362.23pt" viewBox="0 0 365.35 362.23" version="1.1">
<defs>
<clipPath id="clip1">
  <path d="M 361 171 L 365.351563 171 L 365.351563 209 L 361 209 Z M 361 171 "/>
</clipPath>
</defs>
<g id="surface1">
<path style=" stroke:none;fill-rule:nonzero;fill:rgb(100%,100%,100%);fill-opacity:1;" d="M 189.933594 2.960938 C 198.988281 8.609375 207.042969 15.304688 203.015625 27.382813 C 199.136719 39.027344 189.0625 39.609375 178.273438 40.527344 C 60.367188 50.5625 10.320313 173.230469 67.421875 257.683594 C 105.257813 313.644531 156.128906 325.332031 215.277344 314.25 C 271.777344 303.664063 316.089844 252.136719 322.800781 195.746094 C 323.292969 191.609375 324.652344 187.488281 324.574219 183.382813 C 324.382813 173.21875 325.449219 163.746094 336.835938 160.148438 C 348.59375 156.433594 356.097656 162.988281 362.171875 172.027344 C 366.042969 183.917969 360.664063 196.617188 365.347656 208.433594 L 365.347656 212.027344 C 353.792969 284.226563 310.757813 332.125 243.355469 353.09375 C 134.746094 386.886719 27.972656 323.160156 5.851563 224.109375 C -15.5625 128.214844 22.003906 48.742188 115.167969 7.894531 C 126.378906 2.980469 138.710938 4.742188 149.730469 0.00390625 L 160.511719 0.00390625 C 169.964844 4.507813 180.359375 -0.355469 189.933594 2.960938 "/>
<g clip-path="url(#clip1)" clip-rule="nonzero">
<path style=" stroke:none;fill-rule:nonzero;fill:rgb(100%,100%,100%);fill-opacity:1;" d="M 365.347656 208.433594 C 357.699219 196.875 363.378906 184.152344 362.171875 172.027344 C 363.269531 171.914063 364.328125 172.074219 365.347656 172.496094 "/>
</g>
<path style=" stroke:none;fill-rule:nonzero;fill:rgb(100%,100%,100%);fill-opacity:1;" d="M 189.933594 2.960938 C 180.078125 2.4375 169.699219 7.160156 160.511719 0.00390625 L 189.257813 0.00390625 C 189.660156 0.949219 189.882813 1.933594 189.933594 2.960938 "/>
<path style=" stroke:none;fill-rule:nonzero;fill:rgb(100%,100%,100%);fill-opacity:1;" d="M 183.003906 81.480469 C 236.207031 77.355469 286.34375 121.433594 289.132813 178.390625 C 292.035156 237.75 249.90625 286.332031 192.375 291.308594 C 183.816406 292.046875 175.492188 292.300781 169.195313 285.058594 C 161.394531 276.089844 164.429688 262.804688 175.640625 258.566406 C 180.601563 256.691406 186.113281 256.171875 191.425781 255.339844 C 229.496094 249.378906 256.183594 217.109375 253.648438 179.996094 C 251.273438 145.234375 222.421875 116.992188 188.066406 115.800781 C 149.261719 114.457031 116.316406 141.71875 111.804688 179.4375 C 110.714844 188.539063 110.902344 197.941406 100.429688 201.605469 C 86.09375 206.617188 75.660156 197.1875 76.015625 180.1875 C 77.140625 126.546875 129.472656 76.445313 183.003906 81.480469 "/>
<path style=" stroke:none;fill-rule:nonzero;fill:rgb(100%,100%,100%);fill-opacity:1;" d="M 218.621094 179.382813 C 218.988281 201.066406 204.585938 214.183594 180.382813 214.195313 C 161.515625 214.210938 146.5625 199.472656 146.101563 180.402344 C 145.644531 161.726563 161.785156 144.980469 180.878906 144.3125 C 200.46875 143.628906 218.292969 160.191406 218.621094 179.382813 "/>
</g>
</svg>
