<?xml version="1.0" encoding="UTF-8"?>
<svg xmlns="http://www.w3.org/2000/svg" xmlns:xlink="http://www.w3.org/1999/xlink" width="380.09pt" height="144.08pt" viewBox="0 0 380.09 144.08" version="1.1">
<defs>
<clipPath id="clip1">
  <path d="M 325 6 L 380.089844 6 L 380.089844 143 L 325 143 Z M 325 6 "/>
</clipPath>
<clipPath id="clip2">
  <path d="M 192 40 L 293 40 L 293 144.078125 L 192 144.078125 Z M 192 40 "/>
</clipPath>
</defs>
<g id="surface1">
<g clip-path="url(#clip1)" clip-rule="nonzero">
<path style=" stroke:none;fill-rule:nonzero;fill:rgb(100%,100%,100%);fill-opacity:1;" d="M 380.089844 138.011719 C 343.226563 149.730469 325.34375 136.820313 325.230469 98.3125 C 325.15625 72.820313 325.328125 47.324219 325.148438 21.832031 C 325.089844 13.382813 323.886719 6.488281 336.972656 6.296875 C 350.839844 6.089844 350.058594 13.519531 349.609375 22.535156 C 349.484375 25.078125 349.898438 27.679688 349.539063 30.175781 C 348.117188 40.011719 351.722656 44.195313 362.050781 43.046875 C 369.582031 42.210938 376.886719 41.160156 376.75 53.851563 C 376.605469 67.148438 368.316406 64.335938 361.40625 63.84375 C 352.222656 63.1875 348.28125 65.910156 349.320313 75.664063 C 350.128906 83.226563 349.730469 90.953125 349.429688 98.589844 C 348.898438 112.035156 350.777344 122.601563 368.597656 119.058594 C 378.863281 117.019531 373.613281 129.925781 380.089844 131.878906 "/>
</g>
<g clip-path="url(#clip2)" clip-rule="nonzero">
<path style=" stroke:none;fill-rule:nonzero;fill:rgb(100%,100%,100%);fill-opacity:1;" d="M 254.292969 100.992188 C 245.113281 100.992188 235.933594 100.878906 226.761719 101.0625 C 223.953125 101.117188 220.117188 99.601563 218.605469 102.96875 C 216.890625 106.804688 220.179688 109.671875 222.386719 112.28125 C 230.609375 122.015625 246.839844 123.800781 263.601563 116.878906 C 267.660156 115.203125 270.628906 112.210938 275.722656 116.480469 C 287.144531 126.054688 287.371094 130.328125 274 136.683594 C 253.355469 146.496094 232.394531 147.277344 212.742188 134.578125 C 194.863281 123.027344 190.953125 104.867188 192.492188 84.914063 C 194.652344 56.871094 217.914063 38.074219 247.789063 40.265625 C 276.464844 42.367188 293.75 62.929688 292.117188 91.914063 C 291.6875 99.601563 288.605469 101.359375 281.820313 101.085938 C 272.65625 100.714844 263.46875 100.992188 254.292969 100.992188 "/>
</g>
<path style=" stroke:none;fill-rule:nonzero;fill:rgb(100%,100%,100%);fill-opacity:1;" d="M 63.746094 91.746094 C 63.746094 79.476563 63.484375 67.203125 63.894531 54.949219 C 64.027344 50.929688 61.027344 44.199219 67.710938 43.546875 C 74.214844 42.914063 83.777344 38.792969 87.058594 46.40625 C 90.554688 54.527344 93.058594 50.058594 96.699219 48.277344 C 130.78125 31.585938 161.988281 50.042969 163.097656 87.765625 C 163.53125 102.578125 162.785156 117.425781 163.320313 132.230469 C 163.675781 141.949219 157.65625 141.117188 151.34375 141.128906 C 144.949219 141.144531 139.136719 141.753906 139.613281 132.050781 C 140.265625 118.792969 140.25 105.453125 139.582031 92.199219 C 138.652344 73.679688 128.199219 63.46875 112.105469 64.195313 C 96.574219 64.894531 88.378906 74.714844 88.019531 93.582031 C 87.777344 106.355469 87.464844 119.164063 88.09375 131.910156 C 88.644531 143.023438 81.238281 140.722656 74.871094 141.128906 C 67.886719 141.578125 63.140625 140.691406 63.585938 131.605469 C 64.230469 118.347656 63.75 105.035156 63.746094 91.746094 "/>
<path style=" stroke:none;fill-rule:nonzero;fill:rgb(100%,100%,100%);fill-opacity:1;" d="M 3.757813 90.773438 C 3.753906 80.570313 4.65625 70.265625 3.527344 60.191406 C 2.117188 47.652344 5.609375 43.742188 18.792969 45.042969 C 25.9375 45.746094 28.234375 45.746094 28.109375 53.390625 C 27.683594 78.890625 27.453125 104.417969 28.1875 129.902344 C 28.484375 140.253906 23.9375 141.121094 15.492188 141.394531 C 5.816406 141.707031 3.117188 138.179688 3.59375 129.027344 C 4.25 116.308594 3.757813 103.527344 3.757813 90.773438 "/>
<path style=" stroke:none;fill-rule:nonzero;fill:rgb(100%,100%,100%);fill-opacity:1;" d="M 16.285156 -0.00390625 C 26.914063 0.863281 32.589844 6.9375 32.40625 16.738281 C 32.222656 26.726563 25.683594 32.855469 15.722656 32.472656 C 6.003906 32.09375 -0.335938 26.351563 0.015625 15.851563 C 0.359375 5.492188 6.613281 0.671875 16.285156 -0.00390625 "/>
<path style=" stroke:none;fill-rule:nonzero;fill:rgb(100%,100%,100%);fill-opacity:1;" d="M 217.902344 80.359375 C 228.800781 60.691406 250.902344 56.070313 263.058594 68.957031 C 265.429688 71.472656 268.453125 74.375 266.921875 78.195313 C 265.511719 81.703125 261.695313 80.265625 258.910156 80.296875 C 245.8125 80.433594 232.710938 80.359375 217.902344 80.359375 "/>
</g>
</svg>
