<?xml version="1.0" encoding="UTF-8"?>
<svg xmlns="http://www.w3.org/2000/svg" xmlns:xlink="http://www.w3.org/1999/xlink" width="319.57pt" height="319.54pt" viewBox="0 0 319.57 319.54" version="1.1">
<defs>
<clipPath id="clip1">
  <path d="M 0 0 L 319.570313 0 L 319.570313 319.539063 L 0 319.539063 Z M 0 0 "/>
</clipPath>
</defs>
<g id="surface1">
<g clip-path="url(#clip1)" clip-rule="nonzero">
<path style=" stroke:none;fill-rule:nonzero;fill:rgb(100%,100%,100%);fill-opacity:1;" d="M 148.429688 108.109375 C 148.429688 124.75 148.507813 141.390625 148.378906 158.03125 C 148.34375 162.503906 149.75 166.019531 152.945313 169.140625 C 161.058594 177.0625 169.011719 185.140625 177.027344 193.160156 C 185.410156 201.542969 193.816406 209.902344 202.164063 218.324219 C 205.613281 221.804688 209.617188 223.234375 214.355469 221.761719 C 222.816406 219.132813 225.035156 208.984375 218.519531 202.421875 C 203.566406 187.367188 188.554688 172.375 173.492188 157.429688 C 171.816406 155.769531 171.078125 154.128906 171.085938 151.738281 C 171.171875 127.714844 171.140625 103.6875 171.136719 79.660156 C 171.136719 71.859375 171.195313 64.058594 171.097656 56.261719 C 171.035156 51.207031 167.988281 47.128906 163.429688 45.609375 C 155.914063 43.101563 148.503906 48.449219 148.460938 56.625 C 148.371094 73.785156 148.433594 90.949219 148.429688 108.109375 M 149.796875 -0.00390625 L 169.769531 -0.00390625 C 175.210938 0.707031 180.683594 1.234375 186.089844 2.15625 C 216.097656 7.285156 242.652344 19.832031 265.394531 40.066406 C 293.195313 64.804688 310.582031 95.53125 317.113281 132.253906 C 318.148438 138.0625 318.761719 143.945313 319.570313 149.796875 L 319.570313 169.769531 C 319.101563 173.570313 318.699219 177.382813 318.160156 181.171875 C 313.191406 215.90625 298.921875 246.3125 274.082031 271.085938 C 233.085938 311.972656 183.617188 327.179688 126.816406 315.960938 C 88.199219 308.335938 56.859375 287.929688 32.984375 256.683594 C 6.210938 221.640625 -4.171875 181.878906 1.5 138.199219 C 5.667969 106.101563 18.859375 77.855469 40.453125 53.746094 C 65.136719 26.183594 95.738281 8.9375 132.257813 2.453125 C 138.066406 1.421875 143.949219 0.804688 149.796875 -0.00390625 "/>
</g>
</g>
</svg>
