<?xml version="1.0" encoding="UTF-8"?>
<svg xmlns="http://www.w3.org/2000/svg" xmlns:xlink="http://www.w3.org/1999/xlink" width="362.96pt" height="363.06pt" viewBox="0 0 362.96 363.06" version="1.1">
<defs>
<clipPath id="clip1">
  <path d="M 0 0 L 362.960938 0 L 362.960938 363.058594 L 0 363.058594 Z M 0 0 "/>
</clipPath>
</defs>
<g id="surface1">
<g clip-path="url(#clip1)" clip-rule="nonzero">
<path style=" stroke:none;fill-rule:nonzero;fill:rgb(0%,16.868591%,21.556091%);fill-opacity:1;" d="M 81.945313 100.257813 C 81.933594 113.726563 92.222656 123.339844 106.601563 123.285156 C 121.089844 123.234375 131.609375 113.648438 131.636719 100.476563 C 131.664063 87.050781 121.351563 77.339844 107.03125 77.296875 C 92.277344 77.257813 81.957031 86.703125 81.945313 100.257813 M 84.710938 141.34375 L 84.710938 274.175781 L 128.746094 274.175781 L 128.746094 148.53125 C 128.746094 147.234375 128.609375 145.917969 128.769531 144.636719 C 129.117188 141.902344 127.914063 141.265625 125.339844 141.289063 C 113.523438 141.410156 101.707031 141.34375 89.890625 141.34375 Z M 287.886719 274.292969 C 287.957031 273.039063 288.054688 272.113281 288.054688 271.183594 C 288.058594 246.847656 288.109375 222.511719 288.007813 198.175781 C 287.988281 193.347656 287.636719 188.492188 287.039063 183.699219 C 283.816406 157.804688 268.3125 141.539063 243.347656 138.671875 C 225.28125 136.597656 209.984375 142.070313 199.203125 157.558594 C 198.84375 158.074219 198.355469 158.503906 197.269531 159.691406 L 197.269531 141.59375 L 153.375 141.59375 L 153.375 274.191406 L 197.34375 274.191406 L 197.34375 269.777344 C 197.34375 251.699219 197.320313 233.628906 197.351563 215.550781 C 197.367188 208.941406 197.34375 202.320313 197.640625 195.714844 C 198.003906 187.710938 202.046875 181.570313 208.457031 177.117188 C 221.210938 168.25 237.675781 173.910156 241.882813 188.800781 C 243.273438 193.71875 243.738281 199.03125 243.785156 204.171875 C 243.984375 226.261719 243.871094 248.355469 243.871094 270.445313 L 243.871094 274.292969 Z M 170.097656 0.00390625 L 192.789063 0.00390625 C 193.695313 0.203125 194.597656 0.515625 195.515625 0.585938 C 223.78125 2.695313 250.242188 10.8125 274.347656 25.652344 C 321.203125 54.5 350.066406 95.992188 360.175781 150.242188 C 361.402344 156.832031 362.046875 163.53125 362.960938 170.179688 L 362.960938 192.867188 C 362.433594 197.191406 361.996094 201.527344 361.363281 205.832031 C 354.191406 254.574219 331.496094 294.5625 292.632813 324.796875 C 252.757813 355.820313 207.21875 367.863281 157.207031 361.347656 C 114.445313 355.777344 78 336.894531 48.78125 305.148438 C 10.175781 263.207031 -5.40625 213.460938 1.648438 156.996094 C 6.171875 120.761719 21.089844 88.847656 45.359375 61.539063 C 73.554688 29.8125 108.601563 10.046875 150.515625 2.742188 C 157.003906 1.613281 163.566406 0.90625 170.097656 0.00390625 "/>
</g>
</g>
</svg>
