<?xml version="1.0" encoding="UTF-8"?>
<svg xmlns="http://www.w3.org/2000/svg" xmlns:xlink="http://www.w3.org/1999/xlink" width="282pt" height="305.59pt" viewBox="0 0 282 305.59" version="1.1">
<defs>
<clipPath id="clip1">
  <path d="M 0 0 L 282 0 L 282 305.589844 L 0 305.589844 Z M 0 0 "/>
</clipPath>
</defs>
<g id="surface1">
<g clip-path="url(#clip1)" clip-rule="nonzero">
<path style=" stroke:none;fill-rule:nonzero;fill:rgb(100%,100%,100%);fill-opacity:1;" d="M 53.253906 0.00390625 C 58.835938 2.460938 64.402344 4.953125 70.003906 7.371094 C 77.5 10.605469 81.152344 16.921875 83.566406 24.210938 C 89.605469 42.46875 93.632813 61.179688 95.910156 80.261719 C 96.519531 85.359375 94.152344 89.734375 90.816406 93.183594 C 83.574219 100.679688 76.027344 107.894531 68.410156 115.011719 C 66.460938 116.828125 65.910156 118.164063 66.9375 120.734375 C 77.074219 146.089844 92.015625 168.328125 110.820313 187.960938 C 124.816406 202.574219 140.164063 215.671875 157.394531 226.417969 C 160.417969 228.304688 163.753906 231.351563 166.757813 231.144531 C 169.667969 230.941406 172.339844 227.242188 175.109375 225.074219 C 181.757813 219.871094 188.253906 214.46875 195.09375 209.539063 C 199.621094 206.277344 204.859375 205.484375 210.4375 207.015625 C 228.078125 211.859375 245.253906 217.898438 261.988281 225.378906 C 271.589844 229.667969 276.097656 237.34375 279.363281 246.445313 C 281.125 251.351563 282.679688 256.410156 281.703125 261.589844 C 280.964844 265.488281 279.914063 269.746094 277.65625 272.867188 C 270.144531 283.25 260.71875 291.734375 250.03125 298.902344 C 240.820313 305.085938 230.832031 306.285156 220.140625 305.265625 C 171.871094 300.660156 129.828125 281.53125 92.96875 250.570313 C 60.484375 223.292969 36.28125 189.824219 19.914063 150.707031 C 11.019531 129.441406 4.683594 107.425781 1.992188 84.503906 C 0.816406 74.464844 0.65625 64.300781 0.0703125 54.191406 C -0.535156 43.753906 2.753906 34.738281 9.613281 26.820313 C 17.636719 17.5625 26.820313 9.730469 37.296875 3.464844 C 39.964844 1.867188 43.148438 1.132813 46.09375 0.00390625 "/>
</g>
</g>
</svg>
