<?xml version="1.0" encoding="UTF-8"?>
<svg xmlns="http://www.w3.org/2000/svg" xmlns:xlink="http://www.w3.org/1999/xlink" width="350.77pt" height="382.67pt" viewBox="0 0 350.77 382.67" version="1.1">
<defs>
<clipPath id="clip1">
  <path d="M 0 0 L 287 0 L 287 382.671875 L 0 382.671875 Z M 0 0 "/>
</clipPath>
<clipPath id="clip2">
  <path d="M 127 0 L 350.769531 0 L 350.769531 112 L 127 112 Z M 127 0 "/>
</clipPath>
</defs>
<g id="surface1">
<g clip-path="url(#clip1)" clip-rule="nonzero">
<path style=" stroke:none;fill-rule:nonzero;fill:rgb(100%,100%,100%);fill-opacity:1;" d="M 95.449219 286.960938 L 95.449219 255.296875 C 94.414063 255.191406 93.574219 255.027344 92.730469 255.027344 C 78.039063 255.015625 63.34375 254.933594 48.652344 255.050781 C 39.015625 255.121094 31.96875 262.007813 31.96875 271.015625 C 31.96875 280.179688 39.144531 286.917969 49.023438 286.953125 C 59.355469 286.988281 69.691406 286.960938 80.023438 286.960938 Z M 191.515625 286.730469 L 254.941406 286.730469 L 254.941406 255.363281 L 191.515625 255.363281 Z M 156.757813 0 C 145.539063 5.023438 134.34375 10.089844 123.101563 15.054688 C 109.605469 21.015625 100.621094 30.933594 97.054688 45.292969 C 91.816406 66.382813 102.171875 87.179688 122.527344 96.125 C 126.644531 97.933594 127.941406 99.996094 127.714844 104.355469 C 127.097656 116.226563 127.675781 127.992188 132.816406 139.085938 C 137.644531 149.503906 144.472656 158.269531 154.183594 164.429688 C 174.671875 177.421875 196.621094 186.695313 220.867188 190.019531 C 241.972656 192.90625 262.5625 190.816406 282.746094 184.175781 C 283.910156 183.789063 285.082031 183.421875 286.753906 182.882813 C 286.839844 184.46875 286.964844 185.746094 286.964844 187.023438 C 286.976563 225.007813 286.984375 262.988281 286.96875 300.972656 C 286.960938 312.59375 280.597656 318.894531 268.894531 318.902344 C 244.734375 318.921875 220.574219 318.910156 196.417969 318.910156 L 191.320313 318.910156 C 191.320313 320.59375 191.320313 322.015625 191.320313 323.441406 C 191.308594 339.253906 191.320313 355.070313 191.273438 370.886719 C 191.257813 375.882813 188.746094 379.425781 184.308594 381.472656 C 179.839844 383.53125 175.574219 382.914063 171.730469 379.792969 C 170.859375 379.085938 170.042969 378.316406 169.207031 377.570313 C 160.75 370.035156 152.296875 362.5 143.589844 354.742188 C 138.222656 359.507813 132.941406 364.195313 127.664063 368.886719 C 123.847656 372.277344 120.027344 375.667969 116.226563 379.074219 C 112.238281 382.652344 107.761719 383.738281 102.785156 381.480469 C 97.8125 379.222656 95.6875 375.078125 95.679688 369.773438 C 95.652344 354.457031 95.667969 339.140625 95.664063 323.820313 L 95.664063 318.910156 L 91.375 318.910156 C 77.179688 318.910156 62.976563 319.1875 48.785156 318.84375 C 28.339844 318.347656 13.277344 308.457031 3.5625 290.773438 C 1.28125 286.621094 0.171875 281.292969 0.15625 276.503906 C -0.046875 200.910156 0 125.320313 0.0195313 49.730469 C 0.0273438 24.402344 15.648438 5.460938 40.386719 0.621094 C 40.839844 0.53125 41.246094 0.214844 41.675781 0 "/>
</g>
<g clip-path="url(#clip2)" clip-rule="nonzero">
<path style=" stroke:none;fill-rule:nonzero;fill:rgb(100%,100%,100%);fill-opacity:1;" d="M 241.949219 0 C 275.25 14.683594 308.546875 29.359375 341.847656 44.042969 C 348.929688 47.167969 351.910156 52.269531 350.382813 58.636719 C 349.40625 62.710938 346.792969 65.378906 343.066406 67.019531 C 310.203125 81.5 277.339844 95.972656 244.460938 110.414063 C 240.726563 112.054688 237.054688 111.75 233.285156 110.085938 C 200.773438 95.734375 168.226563 81.464844 135.6875 67.175781 C 130.675781 64.972656 127.628906 61.28125 127.671875 55.691406 C 127.722656 49.910156 131.101563 46.421875 136.21875 44.179688 C 168.648438 29.960938 201.054688 15.6875 233.464844 1.417969 C 234.339844 1.03125 235.136719 0.476563 235.972656 0 "/>
</g>
<path style=" stroke:none;fill-rule:nonzero;fill:rgb(100%,100%,100%);fill-opacity:1;" d="M 159.578125 103.777344 C 173.414063 109.867188 186.585938 115.660156 199.753906 121.457031 C 207.714844 124.960938 215.683594 128.449219 223.628906 131.984375 C 234.125 136.65625 244.558594 136.542969 255.050781 131.890625 C 274.929688 123.085938 294.84375 114.359375 314.742188 105.605469 C 315.96875 105.066406 317.214844 104.578125 318.859375 103.898438 C 318.824219 111.933594 320.183594 119.835938 315.972656 126.761719 C 313.515625 130.804688 310.542969 135.15625 306.6875 137.621094 C 284.128906 152.058594 259.789063 160.953125 232.445313 159.199219 C 213.839844 158.007813 196.792969 151.789063 180.558594 143.007813 C 178.152344 141.703125 175.765625 140.355469 173.433594 138.929688 C 164.585938 133.519531 159.90625 125.632813 159.597656 115.242188 C 159.488281 111.648438 159.578125 108.050781 159.578125 103.777344 "/>
</g>
</svg>
