<?xml version="1.0" encoding="UTF-8"?>
<svg xmlns="http://www.w3.org/2000/svg" xmlns:xlink="http://www.w3.org/1999/xlink" width="384pt" height="383.86pt" viewBox="0 0 384 383.86" version="1.1">
<defs>
<clipPath id="clip1">
  <path d="M 0 0 L 384 0 L 384 383.859375 L 0 383.859375 Z M 0 0 "/>
</clipPath>
</defs>
<g id="surface1">
<g clip-path="url(#clip1)" clip-rule="nonzero">
<path style=" stroke:none;fill-rule:nonzero;fill:rgb(100%,100%,100%);fill-opacity:1;" d="M 315.746094 192.191406 C 315.875 123.988281 260.339844 68.320313 192.097656 68.257813 C 124.035156 68.191406 68.496094 123.511719 68.253906 191.621094 C 68.007813 259.785156 123.480469 315.558594 191.714844 315.75 C 259.898438 315.941406 315.617188 260.433594 315.746094 192.191406 M 161.25 0.00390625 L 222.75 0.00390625 C 225.402344 8.3125 228.152344 16.589844 230.644531 24.949219 C 231.355469 27.335938 232.617188 28.242188 234.933594 28.839844 C 249.503906 32.601563 263.363281 38.199219 276.28125 45.925781 C 278.984375 47.542969 280.96875 47.644531 283.71875 46.171875 C 290.929688 42.3125 298.324219 38.796875 305.160156 35.386719 C 319.882813 50.070313 334.195313 64.34375 348.671875 78.78125 C 344.933594 86.277344 341.023438 93.941406 337.335938 101.707031 C 336.761719 102.914063 336.640625 104.933594 337.269531 106.019531 C 345.359375 119.90625 351.433594 134.597656 355.542969 150.128906 C 355.832031 151.214844 356.988281 152.53125 358.027344 152.882813 C 366.648438 155.789063 375.335938 158.488281 384 161.253906 L 384 222.753906 C 375.6875 225.414063 367.40625 228.183594 359.042969 230.664063 C 356.632813 231.378906 355.726563 232.664063 355.132813 234.953125 C 351.269531 249.902344 345.4375 264.0625 337.480469 277.304688 C 336.289063 279.289063 336.371094 280.765625 337.402344 282.753906 C 341.304688 290.269531 345.011719 297.886719 348.890625 305.675781 C 334.824219 319.710938 320.871094 333.667969 306.804688 347.511719 C 306.171875 348.132813 304.285156 348.128906 303.339844 347.675781 C 296.585938 344.445313 289.867188 341.121094 283.257813 337.613281 C 280.910156 336.367188 279.15625 336.355469 276.804688 337.765625 C 264.101563 345.378906 250.554688 351.117188 236.195313 354.742188 C 232.730469 355.617188 231.078125 357.21875 230.097656 360.640625 C 227.847656 368.503906 225.105469 376.226563 222.609375 383.859375 L 161.355469 383.859375 C 158.714844 375.703125 156.011719 367.664063 153.539063 359.554688 C 152.765625 357.019531 151.539063 355.695313 148.867188 355.023438 C 134.011719 351.292969 120.003906 345.425781 106.851563 337.5625 C 104.953125 336.425781 103.496094 336.246094 101.414063 337.335938 C 93.832031 341.316406 86.101563 345.027344 78.800781 348.65625 C 64.164063 334.027344 49.855469 319.722656 35.339844 305.214844 C 39.050781 297.773438 42.953125 290.113281 46.640625 282.351563 C 47.21875 281.136719 47.386719 279.113281 46.757813 278.035156 C 38.65625 264.140625 32.578125 249.445313 28.449219 233.90625 C 28.140625 232.75 26.789063 231.40625 25.632813 231.015625 C 17.128906 228.136719 8.554688 225.480469 0 222.753906 L 0 161.253906 C 8.546875 158.527344 17.125 155.886719 25.609375 152.984375 C 26.832031 152.566406 28.175781 151.027344 28.515625 149.753906 C 32.648438 134.492188 38.609375 120.023438 46.53125 106.335938 C 47.226563 105.136719 47.25 102.980469 46.652344 101.707031 C 42.996094 93.929688 39.070313 86.277344 35.367188 78.855469 C 49.933594 64.300781 64.3125 49.921875 78.871094 35.371094 C 86.285156 39.0625 93.945313 42.964844 101.710938 46.648438 C 102.917969 47.222656 104.9375 47.371094 106.015625 46.742188 C 119.902344 38.648438 134.589844 32.570313 150.125 28.46875 C 151.210938 28.183594 152.53125 27.023438 152.882813 25.976563 C 155.789063 17.359375 158.488281 8.671875 161.25 0.00390625 "/>
</g>
<path style=" stroke:none;fill-rule:nonzero;fill:rgb(100%,100%,100%);fill-opacity:1;" d="M 180.644531 229.632813 C 198.128906 212.15625 215.597656 194.695313 232.785156 177.519531 C 227.839844 172.554688 222.683594 167.375 216.914063 161.578125 C 204.90625 173.613281 192.695313 185.851563 179.953125 198.617188 C 175.378906 193.839844 170.824219 189.078125 166.703125 184.769531 C 161.40625 190.089844 156.253906 195.265625 151.246094 200.289063 C 160.894531 209.921875 170.859375 219.867188 180.644531 229.632813 M 192.207031 113.257813 C 235.539063 113.34375 270.800781 148.75 270.746094 192.113281 C 270.691406 235.601563 235.140625 270.929688 191.601563 270.75 C 148.304688 270.570313 113.128906 235.082031 113.253906 191.695313 C 113.378906 148.394531 148.835938 113.167969 192.207031 113.257813 "/>
</g>
</svg>
